<?xml version="1.0" standalone="no"?>
<!DOCTYPE svg PUBLIC "-//W3C//DTD SVG 20010904//EN"
 "http://www.w3.org/TR/2001/REC-SVG-20010904/DTD/svg10.dtd">
<svg version="1.0" xmlns="http://www.w3.org/2000/svg"
 width="700.000000pt" height="700.000000pt" viewBox="0 0 700.000000 700.000000"
 preserveAspectRatio="xMidYMid meet">
<metadata>
Created by potrace 1.14, written by Peter Selinger 2001-2017
</metadata>
<g transform="translate(0.000000,700.000000) scale(0.100000,-0.100000)"
fill="#000000" stroke="none">
<path d="M0 3500 l0 -3500 3500 0 3500 0 0 3500 0 3500 -3500 0 -3500 0 0
-3500z m5310 1630 l0 -170 -1812 2 -1813 3 -3 155 c-1 85 0 160 2 167 4 11
345 13 1816 13 l1810 0 0 -170z m-1519 -841 l289 -271 -69 -76 c-38 -43 -87
-94 -109 -115 l-39 -38 -172 161 c-95 89 -176 160 -180 158 -5 -2 -58 -56
-119 -121 l-111 -118 1012 -940 c557 -517 1013 -946 1015 -953 1 -7 -20 -72
-48 -144 l-52 -132 -1708 0 -1708 0 -52 132 c-28 72 -49 137 -48 144 3 12
1328 1214 1339 1214 8 0 204 -220 204 -229 0 -4 -231 -216 -514 -471 l-514
-465 647 -3 c355 -1 937 -1 1293 0 l646 3 -977 914 c-537 503 -975 918 -974
922 4 8 652 699 656 699 2 0 134 -122 293 -271z"/>
</g>
</svg>
