<svg width="18" height="14" viewBox="0 0 18 14" fill="none" xmlns="http://www.w3.org/2000/svg">
<path d="M18 4.14355C18 4.33879 17.9355 4.53532 17.8028 4.6996L16.3977 6.43915C16.2199 6.6592 15.9584 6.77363 15.6943 6.77363C15.4971 6.77363 15.2985 6.70978 15.1326 6.57833L13.5 5.28669V12.6452C13.5 13.3934 12.8956 14 12.15 14H5.85001C5.10469 14 4.50001 13.3931 4.50001 12.6452V5.28669L2.84344 6.57944C2.70141 6.70927 2.50285 6.74879 2.30569 6.74879C2.04166 6.74879 1.78004 6.63428 1.60229 6.41431L0.197221 4.6996C0.0644709 4.53589 0 4.33831 0 4.14355C0 3.88212 0.115622 3.62306 0.337781 3.44694L4.13465 0.438065C4.49438 0.15496 4.94157 0 5.37469 0H6.34501C6.56157 1.28032 7.66407 2.25806 9 2.25806C10.3359 2.25806 11.4393 1.28032 11.6547 0H12.5997C13.0596 0 13.5059 0.15496 13.8651 0.439476L17.6619 3.44835C17.8847 3.62419 18 3.88387 18 4.14355Z" fill="#957D5E"/>
</svg>
