<svg width="101" height="170" viewBox="0 0 101 170" fill="none" xmlns="http://www.w3.org/2000/svg">
<path d="M58.8097 78.8081C58.7799 78.7852 58.7422 78.7955 58.7102 78.7818C58.6759 78.7692 58.6496 78.7407 58.6108 78.7407H56.7999L56.8376 78.6435C56.8479 78.6206 56.8342 78.6023 56.8376 78.5795C56.8445 78.5566 56.8639 78.5417 56.8639 78.5189C56.8639 78.4926 56.8445 78.4811 56.8376 78.4583C56.8308 78.4171 56.8182 78.384 56.7931 78.3497C56.7668 78.312 56.745 78.2857 56.7062 78.2628C56.6902 78.2502 56.6833 78.2251 56.6616 78.2148C56.6399 78.2045 56.6204 78.2182 56.5976 78.2148C56.5747 78.2114 56.5598 78.1885 56.537 78.1885H52.8752L52.4396 78.105V75.1761C52.4522 75.1864 52.4557 75.2058 52.4728 75.2104C52.5174 75.2367 52.57 75.2447 52.6203 75.2447C52.6969 75.2447 52.7643 75.2104 52.8215 75.1612C52.8318 75.1544 52.8443 75.1578 52.8512 75.1487C52.8615 75.1384 52.8581 75.1258 52.8672 75.1155C52.8798 75.0961 52.9015 75.0858 52.9118 75.0652L53.2833 74.329C53.2902 74.313 53.2799 74.2958 53.2868 74.2844C53.2936 74.2684 53.3096 74.2581 53.313 74.2398L53.3931 73.7974L54.4174 72.1912C54.4277 72.1809 54.4208 72.1683 54.4242 72.1569C54.4345 72.1409 54.4505 72.134 54.4574 72.1157L55.149 69.9494C55.1525 69.9299 55.1422 69.9151 55.1422 69.8991C55.1456 69.8796 55.165 69.8694 55.165 69.8511V67.1783C55.165 67.1485 55.1388 67.1337 55.1319 67.1039C55.125 67.0777 55.1388 67.0536 55.125 67.0274L53.3713 63.6594C53.3588 63.6331 53.3302 63.6297 53.3108 63.6114C53.2948 63.5885 53.2948 63.5611 53.273 63.544L50.5979 61.6554C50.5785 61.6428 50.5568 61.652 50.5374 61.6428C50.5156 61.6325 50.5076 61.6097 50.4871 61.6051L47.9994 61.0038C47.9766 60.9969 47.9583 61.0163 47.9354 61.014C47.9103 61.014 47.8931 60.9946 47.868 61.0015L44.5937 61.5559C44.5605 61.5628 44.5457 61.5902 44.5182 61.6039C44.4908 61.6165 44.4576 61.6108 44.4325 61.6336L40.9765 64.6299C40.9513 64.6493 40.9536 64.6802 40.9387 64.7065C40.9204 64.7328 40.8907 64.7408 40.8816 64.7705L39.8699 67.7188C39.863 67.7382 39.8767 67.7565 39.8733 67.7725C39.8699 67.7919 39.8504 67.8057 39.8504 67.8262V70.0829C39.8504 70.0932 39.8607 70.0989 39.8607 70.1092C39.8618 70.1195 39.8538 70.1252 39.8538 70.1355L40.1328 71.8892C40.1362 71.9189 40.1625 71.9372 40.1739 71.9658C40.1842 71.9852 40.1751 72.0069 40.1899 72.0264L40.8427 72.9421L41.1034 74.0338C41.1045 74.0407 41.1148 74.0464 41.1182 74.0533C41.1182 74.0601 41.1148 74.0693 41.1171 74.0761L41.5778 75.2731C41.5892 75.3028 41.6144 75.3176 41.6338 75.3439C41.6487 75.3634 41.659 75.3782 41.675 75.3942C41.7356 75.4445 41.8042 75.4811 41.883 75.4811H42.5518L43.4287 77.3663C43.4595 77.4303 43.5075 77.4772 43.5636 77.5103C43.567 77.5103 43.567 77.5137 43.5681 77.5137L44.3592 77.9527L44.7754 79.8767L40.8508 81.2532C40.8211 81.2634 40.8096 81.2943 40.7868 81.3103C40.7593 81.3297 40.7262 81.3298 40.7067 81.3549L39.8779 82.3689C39.8516 82.3986 39.8585 82.4364 39.8448 82.4707C39.8322 82.5049 39.8025 82.5347 39.8025 82.5758C39.8025 82.5827 39.8093 82.5861 39.8105 82.5918C39.8105 82.633 39.8379 82.6661 39.8551 82.7027C39.8665 82.7256 39.8676 82.753 39.8848 82.7736L38.2431 83.8654C38.21 83.8882 38.2066 83.926 38.186 83.9557C38.1631 83.982 38.1322 83.9934 38.1185 84.0266L37.1971 86.4719C37.196 86.4788 37.2005 86.4822 37.1983 86.4879C37.1971 86.4948 37.1868 86.4982 37.1868 86.5039L35.2137 94.121L32.7878 98.9294C32.7843 98.9362 32.7889 98.942 32.7866 98.9488C32.7832 98.9557 32.774 98.9591 32.7718 98.9648L30.6968 104.771C30.6957 104.778 30.698 104.784 30.698 104.791C30.6946 104.798 30.6877 104.798 30.6866 104.803L28.8872 112.178C28.8837 112.194 28.8952 112.204 28.894 112.219C28.8929 112.232 28.878 112.242 28.878 112.257V114.38C28.878 114.414 28.9055 114.44 28.9169 114.477C28.9295 114.515 28.9363 114.554 28.9615 114.586C28.9912 114.62 29.0301 114.634 29.0701 114.653C29.1009 114.669 29.1181 114.698 29.1535 114.703H29.1661L28.9135 114.991C28.8872 115.025 28.8906 115.062 28.8792 115.097C28.8632 115.134 28.8334 115.164 28.8334 115.207V116.635C28.8334 116.658 28.8552 116.673 28.8597 116.696C28.8643 116.719 28.8517 116.737 28.8597 116.76L29.4576 118.191C29.4874 118.262 29.5399 118.309 29.5982 118.346C29.6017 118.349 29.6017 118.352 29.6051 118.356L31.4045 119.323C31.4537 119.353 31.5062 119.364 31.56 119.364C31.6537 119.364 31.7349 119.316 31.7989 119.243C31.8058 119.236 31.8172 119.24 31.8241 119.23L33.2988 117.249C33.3205 117.22 33.3114 117.182 33.324 117.15C33.3354 117.115 33.3628 117.089 33.3628 117.053V115.118C33.3937 115.102 33.4166 115.085 33.4417 115.065C33.4497 115.054 33.4634 115.058 33.4714 115.052L34.6695 113.621V113.617C34.6764 113.61 34.673 113.598 34.6798 113.591C34.6832 113.584 34.6924 113.588 34.6981 113.581L38.4708 107.509L40.029 105.361L40.0827 105.916L39.9375 111.664L38.6537 117.07C38.6503 117.089 38.664 117.104 38.664 117.124C38.6628 117.143 38.6457 117.158 38.648 117.177C38.6514 117.207 38.6743 117.222 38.6823 117.248C38.6949 117.283 38.7074 117.316 38.7303 117.345C38.7634 117.38 38.7955 117.403 38.8389 117.422C38.8618 117.435 38.872 117.456 38.8961 117.463C38.9212 117.47 38.9464 117.474 38.9727 117.474H39.0058L43.3009 117.047V122.954C43.3009 122.964 43.3112 122.97 43.3112 122.98C43.3123 122.991 43.3043 122.996 43.3043 123.007L44.9105 133.512L41.9359 152.638L40.4269 154.455C40.4006 154.489 40.4075 154.526 40.3938 154.561C40.3812 154.595 40.3515 154.625 40.3515 154.666V158.078C40.3515 158.098 40.3709 158.113 40.3766 158.132C40.3835 158.173 40.3983 158.206 40.4212 158.243C40.4463 158.277 40.4669 158.307 40.5046 158.33C40.5206 158.342 40.5264 158.364 40.5435 158.374L41.9645 159.021V160.106C41.9645 160.126 41.9828 160.136 41.9862 160.154C41.9931 160.195 42.0091 160.229 42.0308 160.263C42.0537 160.301 42.0731 160.33 42.1097 160.357C42.1246 160.369 42.128 160.39 42.144 160.398L43.3901 161.041C43.4381 161.068 43.4896 161.079 43.541 161.079H46.1201C46.199 161.079 46.2675 161.045 46.327 160.992C46.3464 160.976 46.3567 160.958 46.3693 160.938C46.3887 160.916 46.4139 160.901 46.423 160.871L47.4816 158.195C47.4851 158.188 47.4805 158.182 47.4816 158.175C47.4885 158.156 47.4862 158.141 47.4885 158.122C47.4919 158.106 47.5068 158.095 47.5068 158.084L47.5548 155.779C47.5559 155.735 47.5251 155.705 47.5125 155.668C47.4999 155.634 47.5056 155.594 47.4793 155.567L47.1661 155.184L47.3559 154.344L48.2259 151.691L48.8764 149.885L48.4637 154.084C48.4625 154.097 48.4739 154.107 48.4751 154.118C48.4751 154.131 48.4637 154.141 48.4637 154.153C48.4671 154.175 48.4888 154.187 48.4968 154.21L48.2727 154.327C48.2384 154.343 48.227 154.381 48.2019 154.411C48.1756 154.437 48.1413 154.449 48.1253 154.482L47.6188 155.59C47.6074 155.616 47.62 155.638 47.6154 155.66C47.6085 155.687 47.588 155.702 47.588 155.728V158.264C47.588 158.293 47.6131 158.312 47.6188 158.338C47.6257 158.364 47.612 158.388 47.6257 158.414L48.1321 159.382C48.1333 159.385 48.1356 159.385 48.1356 159.385C48.139 159.388 48.1424 159.392 48.1458 159.395C48.1836 159.463 48.2442 159.504 48.3116 159.527C48.3196 159.534 48.323 159.543 48.3333 159.546L51.4669 160.468C51.5 160.478 51.5286 160.48 51.5606 160.48C51.5915 160.48 51.6212 160.477 51.6543 160.468L54.326 159.686C54.3706 159.673 54.3934 159.635 54.4255 159.606C54.4449 159.59 54.4735 159.595 54.4895 159.572L56.9805 156.483C56.9839 156.48 56.9805 156.473 56.9839 156.467C57.0102 156.434 57.0102 156.391 57.0182 156.35C57.0262 156.309 57.0514 156.273 57.0445 156.232C57.0445 156.225 57.048 156.222 57.048 156.216L56.5107 153.449L57.0845 153.641C57.1177 153.652 57.152 153.657 57.1863 153.657C57.2023 153.657 57.216 153.657 57.2309 153.654C57.2469 153.654 57.2537 153.635 57.2686 153.631C57.3258 153.615 57.3703 153.59 57.4126 153.548C57.4321 153.528 57.4458 153.513 57.4572 153.487C57.4698 153.468 57.4904 153.454 57.495 153.433C57.5052 153.407 57.4881 153.385 57.4915 153.359C57.495 153.333 57.5144 153.314 57.511 153.285L56.8639 148.446C56.8639 148.442 56.8571 148.439 56.8571 148.433C56.8536 148.43 56.8605 148.423 56.8605 148.417L55.1571 140.783L54.7913 136.314V130.806L60.1918 116.969L61.3098 116.73C61.343 116.719 61.3601 116.692 61.3898 116.676C61.4276 116.653 61.4664 116.638 61.4916 116.602C61.5167 116.565 61.5213 116.527 61.5327 116.487C61.543 116.454 61.567 116.43 61.5659 116.39L60.9245 104.102V94.2715L63.6522 95.9452C63.682 95.9646 63.7128 95.9646 63.746 95.9714C63.7586 95.9749 63.7654 95.9909 63.7791 95.9909L66.3582 96.3624C66.3708 96.3658 66.3879 96.3658 66.4028 96.3658H66.4062C66.4405 96.3658 66.4805 96.359 66.5148 96.3464L69.1876 95.3792C69.2379 95.3598 69.2619 95.3152 69.2962 95.2798C69.3122 95.2638 69.3374 95.2695 69.35 95.2501L70.7812 93.0803C70.7972 93.0505 70.7881 93.0197 70.7972 92.9865C70.8075 92.9568 70.835 92.9362 70.835 92.8996V90.0725L71.2419 87.7015C71.2419 87.698 71.2385 87.6946 71.2385 87.6912C71.2419 87.6809 71.2385 87.6717 71.2385 87.6614C71.2385 87.6546 71.2488 87.6512 71.2488 87.6454V86.125L72.1096 83.1732C72.1199 83.1503 72.1028 83.1321 72.1028 83.1058C72.1062 83.0829 72.1256 83.068 72.1222 83.0417L71.6615 79.0794C71.6581 79.0531 71.6352 79.0417 71.6284 79.0188C71.6181 78.996 71.6318 78.9742 71.6181 78.9548L70.7412 77.4343C70.7218 77.4 70.6841 77.3932 70.6578 77.3703C70.628 77.344 70.6132 77.3063 70.5777 77.2937L68.5966 76.5083C68.5806 76.5015 68.5634 76.5118 68.5486 76.5083C68.504 76.4981 68.4685 76.5015 68.4274 76.5083C68.3828 76.5186 68.3474 76.5243 68.3096 76.5461C68.2971 76.5564 68.2765 76.5495 68.2651 76.5621L67.0681 77.5761C67.0521 77.5887 67.0521 77.6104 67.0384 77.6264C67.0121 77.6607 66.9972 77.6938 66.9847 77.735C66.9721 77.7762 66.9652 77.8116 66.9721 77.8527C66.9721 77.8756 66.9595 77.8939 66.9652 77.9133L67.4717 79.6636C67.4785 79.6933 67.5014 79.7047 67.5163 79.7276C67.5231 79.7436 67.5163 79.7619 67.5289 79.7756L68.5189 81.0217V82.5525L66.2553 83.7082C66.2485 83.7117 66.2485 83.7185 66.245 83.7185C66.2039 83.7414 66.1879 83.7826 66.1581 83.8203C66.1353 83.8534 66.101 83.874 66.0907 83.914C66.0907 83.9174 66.0838 83.9174 66.0838 83.9243L65.7477 85.2973L64.5016 83.5368C64.4914 83.5242 64.4753 83.5242 64.4673 83.5139C64.4605 83.5036 64.4605 83.4876 64.4513 83.4796L61.3178 80.7131C61.3144 80.7096 61.3075 80.7096 61.3053 80.7062C61.3018 80.7062 61.3018 80.6993 61.2984 80.6959L58.8097 78.8081ZM66.684 84.2282L68.9921 83.0495C69.0081 83.0393 69.0116 83.0198 69.0253 83.0118C69.0596 82.9855 69.0824 82.9581 69.1053 82.9181C69.1282 82.8792 69.143 82.8472 69.1499 82.8072C69.1533 82.7878 69.1727 82.7775 69.1727 82.7592V80.9152C69.1727 80.874 69.143 80.8477 69.1282 80.8134C69.1179 80.7791 69.1247 80.7425 69.0984 80.7117L68.081 79.4279L67.6511 77.9417L68.5382 77.1895L70.2279 77.8617L71.0144 79.2221L71.4591 83.0542L70.6394 85.8585L68.9943 86.7799L67.5196 86.2769L66.2838 85.8641L66.684 84.2282ZM68.9121 88.8364H67.9621L66.2233 87.8658V86.5317L67.3082 86.8941V86.8975L68.9212 87.4486C68.9555 87.4588 68.9921 87.4646 69.0264 87.4646C69.0801 87.4646 69.135 87.452 69.1865 87.4234L70.588 86.638V87.4897L68.9121 88.8364ZM48.8889 119.832L45.3439 131.996L43.9572 122.931L43.9583 117.013H49.5326L48.8889 119.832ZM42.5302 83.2173L41.9872 82.5897C41.9621 82.56 41.9266 82.56 41.8957 82.5451C41.866 82.5257 41.8512 82.4948 41.8157 82.4845L40.8486 82.2536C40.8451 82.2536 40.8451 82.257 40.8417 82.257C40.8291 82.2536 40.8188 82.257 40.8074 82.257L41.1515 81.8375L44.1993 80.7652L44.0621 80.9401L43.231 82.0044C43.215 82.0238 43.223 82.049 43.2116 82.0718C43.1933 82.113 43.1818 82.1461 43.1784 82.1862C43.1773 82.2307 43.1853 82.2662 43.2001 82.3073C43.2081 82.3302 43.199 82.3553 43.2116 82.3782L44.0964 83.8061L42.5302 83.2173ZM43.9741 76.9892L43.0515 75.0115C43.0413 74.992 43.0184 74.9886 43.0092 74.9738C42.983 74.9395 42.9567 74.9166 42.9212 74.8937C42.8835 74.8674 42.8503 74.856 42.8103 74.8457C42.7886 74.8423 42.776 74.8229 42.7566 74.8229H42.1004L41.7289 73.8557L41.4614 72.7376L41.2956 71.7476L41.6122 71.1463H41.9678C42.0535 71.1463 42.1278 71.112 42.1873 71.056C42.209 71.0366 42.2124 71.0114 42.2261 70.9851C42.249 70.9508 42.2821 70.9177 42.2902 70.8742L42.7223 68.278L44.2714 67.5669C44.2759 67.5635 44.2782 67.5566 44.2839 67.5544C44.3479 67.5201 44.4017 67.4709 44.4348 67.4L45.3311 65.3354L46.6846 63.9818L47.366 66.4774C47.382 66.5312 47.4197 66.5712 47.4563 66.6089C47.4666 66.6192 47.4666 66.6352 47.4757 66.6432L49.226 68.0745C49.2866 68.1248 49.3609 68.1488 49.4341 68.1488H50.775L52.4258 69.0737V70.7256C52.4258 70.745 52.4452 70.7599 52.4487 70.7793C52.4555 70.8205 52.4715 70.8536 52.4933 70.8902C52.5196 70.9245 52.5413 70.9542 52.5767 70.9771C52.5927 70.9897 52.5996 71.0114 52.6179 71.0217C52.659 71.0411 52.7082 71.0514 52.7528 71.0514C52.8294 71.0514 52.9002 71.0171 52.9574 70.9679C52.9768 70.9519 52.9871 70.9348 52.9986 70.9176C53.018 70.8982 53.0397 70.8845 53.0489 70.8605L53.082 70.793L53.1586 71.4972L52.7516 73.6167V73.6202L52.6682 74.0774L52.5287 74.3678L52.3435 74.186C52.3275 74.17 52.3058 74.1735 52.2898 74.1598C52.2738 74.1495 52.2703 74.1266 52.2555 74.122C52.2292 74.1095 52.2075 74.122 52.1812 74.1186C52.1549 74.1083 52.14 74.0854 52.1103 74.0854C52.0909 74.0854 52.076 74.1049 52.0566 74.1083C52.0154 74.1186 51.9857 74.1312 51.9514 74.1529C51.9262 74.1655 51.9011 74.1632 51.8794 74.1826C51.8645 74.1986 51.8679 74.2203 51.8576 74.2363C51.8451 74.2524 51.8233 74.2558 51.8165 74.2706L50.5772 76.8337L48.5401 77.7266H47.1945L44.7458 77.4167L43.9741 76.9892ZM41.4682 65.0645L44.7881 62.1836L47.3203 61.7537L46.5898 63.153L44.8281 64.917C44.8121 64.933 44.8167 64.9581 44.803 64.9741C44.7904 64.9935 44.7687 64.997 44.7584 65.0187L43.8861 67.0227L42.2937 67.7555C42.2856 67.759 42.2834 67.7681 42.2776 67.775C42.2353 67.7978 42.2125 67.8321 42.1839 67.8744C42.1576 67.9076 42.1347 67.9316 42.1233 67.9716C42.1199 67.9842 42.1085 67.9876 42.1073 68.0013L41.6912 70.4924H41.4157C41.3962 70.4924 41.3848 70.5118 41.3676 70.5152C41.3265 70.5221 41.2968 70.5381 41.2613 70.5564C41.2225 70.5827 41.1927 70.601 41.1642 70.6364C41.1527 70.649 41.1333 70.6524 41.1264 70.6696L40.7183 71.4412L40.5 70.0579V67.8813L41.4682 65.0645ZM50.2673 62.2293L52.8235 64.0356L54.5029 67.2596V69.802L53.841 71.8804L53.7198 72.069L53.817 71.5752C53.8204 71.5557 53.8044 71.542 53.8067 71.5271C53.8067 71.5077 53.8193 71.494 53.8193 71.4791L53.6821 70.1896C53.6787 70.1565 53.6489 70.1416 53.6375 70.1153C53.6181 70.065 53.6032 70.0158 53.5609 69.9804C53.5415 69.9644 53.5163 69.961 53.49 69.9507C53.4455 69.9278 53.41 69.8935 53.3551 69.8935H53.0865V68.8852C53.0865 68.8658 53.0705 68.8555 53.067 68.8406C53.0602 68.7995 53.0408 68.7663 53.0225 68.7297C52.9996 68.6954 52.9813 68.6623 52.9459 68.636C52.9333 68.6257 52.9333 68.6063 52.9161 68.5983L51.0253 67.5397C50.999 67.5271 50.9716 67.5362 50.9418 67.5294C50.9144 67.5225 50.8961 67.4962 50.8652 67.4962H49.554L47.9741 66.2067L47.2059 63.3933L48.0895 61.7036L50.2673 62.2293ZM47.1373 78.3807C47.1522 78.3841 47.1648 78.3841 47.1785 78.3841H48.6098C48.6543 78.3841 48.7001 78.3738 48.7412 78.3578L50.9533 77.3872C50.9602 77.3838 50.9602 77.3769 50.9659 77.3747C51.0299 77.3415 51.0837 77.2981 51.1168 77.2306L51.7833 75.8473V78.8597L50.5818 80.3104L48.9459 80.8706L46.6172 81.1392H45.4305L44.8738 80.9666L45.4099 80.2853C45.4134 80.2818 45.4111 80.275 45.4145 80.2727C45.4214 80.2601 45.4248 80.2533 45.4305 80.2395C45.4499 80.2064 45.4465 80.1721 45.4534 80.1344C45.4602 80.1001 45.4762 80.0669 45.4694 80.0326C45.4694 80.0258 45.4739 80.02 45.4728 80.0166L45.0613 78.1189L47.1373 78.3807ZM46.9441 84.5564L46.3519 83.5995C46.3451 83.5893 46.3291 83.5893 46.3188 83.5767C46.2914 83.5424 46.2582 83.5264 46.217 83.5058C46.1805 83.4829 46.1496 83.4646 46.1073 83.4578C46.0947 83.4578 46.0856 83.4452 46.073 83.4452H44.6417L43.8895 82.2289L44.4405 81.5212L45.2865 81.7807C45.3196 81.791 45.3505 81.7967 45.3837 81.7967H46.6275C46.64 81.7967 46.6526 81.7933 46.664 81.7933L49.0613 81.5143C49.0648 81.5143 49.0648 81.5109 49.0682 81.5109C49.0899 81.5075 49.1093 81.5075 49.1288 81.5006L49.7461 81.2891L46.9441 84.5564ZM47.1956 85.2698L51.0219 80.8032H51.023C51.0242 80.7997 51.0242 80.8032 51.0242 80.7997L52.3617 79.1867C52.388 79.157 52.3811 79.1192 52.3948 79.0849C52.4074 79.0506 52.4394 79.0209 52.4394 78.9798V78.7751L52.7847 78.8391C52.8075 78.846 52.8258 78.846 52.8487 78.846H56.0428L56.0165 78.9032L55.2266 79.9046L52.2622 81.1176C52.2393 81.1278 52.2325 81.1507 52.2142 81.1621C52.1959 81.1736 52.1696 81.1724 52.1536 81.1884L47.7763 85.5681C47.7728 85.5715 47.7751 85.5784 47.7717 85.5807C47.7683 85.5841 47.7637 85.5841 47.7603 85.5875L46.72 86.7902L47.1956 85.2698ZM31.4593 118.613L30.012 117.834L29.4838 116.571V115.332L29.9365 114.817L32.6997 115.093V116.946L31.4593 118.613ZM33.0872 114.481H33.0838C33.0735 114.478 33.0689 114.468 33.0586 114.468L29.8315 114.148H29.8303L29.5273 114.1V112.586H32.909L33.9459 113.45L33.0872 114.481ZM44.8015 153.103L46.5472 155.462C46.5472 155.465 46.5518 155.462 46.554 155.465C46.5575 155.469 46.554 155.472 46.5575 155.476L46.897 155.885L46.8741 156.897L46.0808 155.517C46.0705 155.504 46.0545 155.504 46.0465 155.49C46.019 155.456 45.987 155.437 45.9493 155.416C45.9116 155.393 45.8784 155.375 45.8361 155.368C45.8213 155.365 45.811 155.352 45.7973 155.352H42.5265C42.4933 155.352 42.4739 155.378 42.443 155.385C42.4133 155.396 42.3859 155.382 42.3561 155.398L41.0106 156.207V154.783L42.4041 153.103L44.8015 153.103ZM45.8967 160.425H43.6183L42.6214 159.91V158.815C42.6214 158.792 42.602 158.781 42.5963 158.761C42.5894 158.717 42.5746 158.685 42.5517 158.65C42.5265 158.613 42.506 158.586 42.4682 158.56C42.4522 158.548 42.4465 158.526 42.4294 158.519L41.0084 157.87V156.977L42.6146 156.013H45.6053L46.8136 158.106L45.8967 160.425ZM46.7301 154.151C46.7267 154.157 46.7335 154.161 46.7301 154.167C46.7301 154.173 46.7233 154.173 46.7198 154.179L46.6489 154.499L45.2279 152.582C45.2234 152.575 45.2131 152.575 45.2062 152.57C45.1765 152.535 45.1376 152.525 45.0976 152.506C45.061 152.486 45.0302 152.464 44.9913 152.461C44.981 152.458 44.9753 152.448 44.965 152.448H42.6283L45.564 133.579L49.5207 120.003C49.5219 119.999 49.5207 119.999 49.5207 119.996C49.5207 119.989 49.5253 119.989 49.5276 119.986L50.2044 117.012H59.4656L54.1553 130.627V130.63L53.5082 132.336C53.5082 132.343 53.5117 132.349 53.5117 132.355C53.5082 132.366 53.4991 132.368 53.4957 132.375L51.8883 139.183L48.9892 147.646L47.6093 151.468C47.6082 151.468 47.6093 151.471 47.6093 151.471C47.6093 151.475 47.6059 151.475 47.6059 151.478L46.7301 154.151ZM54.1403 136.337C54.1403 136.341 54.1369 136.344 54.1369 136.35L54.5061 140.863C54.5061 140.874 54.5164 140.876 54.5164 140.886C54.5198 140.896 54.513 140.902 54.513 140.909L56.2163 148.552L56.7902 152.854L56.1889 152.656L55.8265 152.516C55.7933 152.503 55.7693 152.523 55.7362 152.519C55.703 152.516 55.679 152.493 55.6424 152.5L49.5159 153.699L49.158 153.74L49.6713 148.521C49.6713 148.511 49.6633 148.505 49.6633 148.495C49.6633 148.485 49.6736 148.479 49.6713 148.469L49.6325 147.793L52.5133 139.375C52.5168 139.368 52.5099 139.364 52.5133 139.359C52.5133 139.352 52.5202 139.348 52.5236 139.343L54.1333 132.538V132.535V136.319C54.1333 136.328 54.1401 136.331 54.1401 136.337L54.1403 136.337ZM54.0431 159.083L51.5532 159.808L48.6506 158.954L48.2459 158.183V155.798L48.6758 154.861L49.6875 154.333L55.678 153.161L55.7889 153.202L56.3708 156.191L54.0431 159.083Z" fill="#2C2E32"/>
</svg>
