<svg width="100" height="170" viewBox="0 0 100 170" fill="none" xmlns="http://www.w3.org/2000/svg">
<path d="M45.7394 29.8014L45.8339 29.927C45.8385 29.9339 45.8489 29.9305 45.8535 29.9374C45.8661 29.9535 45.88 29.9639 45.8926 29.9754C45.8972 30.0099 45.9226 30.0353 45.9376 30.0664C45.9571 30.1056 45.9721 30.139 46.0055 30.1689C46.017 30.1804 46.017 30.1966 46.0309 30.2058L46.2544 30.3555C46.2544 30.3555 46.2555 30.3555 46.2555 30.3567H46.2567C46.3131 30.3947 46.3776 30.4131 46.4398 30.4131C46.4767 30.4131 46.517 30.4062 46.5516 30.3913C46.6126 30.4604 46.6956 30.5088 46.7923 30.5088H47.1241C47.161 30.5088 47.2001 30.5018 47.2359 30.4892L47.5262 30.3855L48.0331 30.4005H48.0434C48.1344 30.4005 48.2151 30.3636 48.2761 30.3025L48.2946 30.2864L48.3971 30.3279C48.4363 30.3463 48.4812 30.3544 48.5227 30.3544C48.5918 30.3544 48.6563 30.329 48.7104 30.2899C48.7139 30.2887 48.7173 30.2887 48.7208 30.2864L48.8579 30.1839C48.859 30.1827 48.8613 30.1804 48.8625 30.1804L48.8659 30.177C48.8706 30.1735 48.8694 30.1666 48.874 30.162C48.9201 30.124 48.9627 30.0756 48.9811 30.0134L49.0756 29.7196C49.0825 29.7001 49.0675 29.6828 49.071 29.6632C49.0745 29.6413 49.094 29.6286 49.0929 29.6067L49.0825 29.3591C49.0814 29.3372 49.0641 29.3257 49.0606 29.3084C49.0572 29.2922 49.0687 29.2773 49.0618 29.2623L48.9005 28.8142C48.8936 28.7957 48.874 28.7911 48.8659 28.7773C48.8579 28.7646 48.8648 28.7439 48.8544 28.7312L48.6286 28.4202C48.6056 28.3891 48.571 28.3856 48.5411 28.3672C48.5042 28.3395 48.4754 28.3096 48.4316 28.2992C48.389 28.2889 48.351 28.3061 48.3072 28.3142C48.2727 28.3211 48.2358 28.3073 48.2035 28.3269L48.0319 28.4225L47.8914 28.4444L47.4144 28.4709L46.9041 28.3994L46.4663 28.2693C46.4536 28.2658 46.441 28.2762 46.4295 28.2727C46.3834 28.2647 46.3454 28.2762 46.2993 28.2877C46.2601 28.2981 46.2221 28.3027 46.1887 28.3257C46.1772 28.3338 46.1622 28.3292 46.1541 28.3384L46.0666 28.4156C46.0447 28.434 46.0481 28.4617 46.0332 28.4835C46.017 28.5066 45.9882 28.5146 45.979 28.54L45.7555 29.0987C45.7509 29.1114 45.759 29.124 45.7555 29.1356C45.7521 29.1471 45.7371 29.1552 45.736 29.1701L45.6749 29.556V29.5572C45.6703 29.5941 45.6945 29.6286 45.7014 29.6643C45.7141 29.7116 45.7106 29.7623 45.7394 29.8014L45.7394 29.8014ZM46.3845 29.3061L46.5205 28.9697L46.7451 29.0377C46.7601 29.0423 46.7728 29.0411 46.7866 29.0446C46.79 29.0446 46.7912 29.0492 46.7946 29.0492L47.3534 29.1264C47.3683 29.1275 47.3845 29.1298 47.3983 29.1298C47.4052 29.1298 47.4098 29.1298 47.4167 29.1287L47.9305 29.101H47.9317C47.9363 29.101 47.942 29.0999 47.9478 29.0999H47.9489C47.9605 29.0987 47.9708 29.0987 47.9823 29.0964L48.1955 29.063C48.2058 29.0618 48.2104 29.0503 48.2208 29.048C48.2369 29.0446 48.2542 29.0411 48.2669 29.0354L48.3003 29.078L48.427 29.4351L48.4339 29.5791L48.419 29.6217L48.3498 29.5918C48.3268 29.5814 48.3072 29.5952 48.2842 29.5918C48.245 29.5837 48.2116 29.5837 48.1701 29.5906C48.1252 29.5987 48.0895 29.6125 48.0515 29.639C48.033 29.6505 48.0123 29.6459 47.995 29.662L47.9224 29.7346L47.4893 29.7219H47.4789C47.457 29.7219 47.4443 29.7404 47.4248 29.745C47.4052 29.7484 47.3867 29.7346 47.3672 29.7415L47.0711 29.8475H46.9824L46.9628 29.8164C46.9432 29.7853 46.9064 29.7795 46.8799 29.7588C46.8465 29.7311 46.8234 29.7047 46.7843 29.6897C46.7428 29.6747 46.7036 29.6816 46.6598 29.6851C46.6264 29.6862 46.5953 29.6701 46.5642 29.6816L46.5423 29.6897C46.5377 29.662 46.5204 29.6413 46.5112 29.6171C46.4951 29.5791 46.4928 29.5365 46.4663 29.5077C46.4398 29.48 46.3983 29.4731 46.3638 29.457L46.3845 29.3061Z" fill="#2C2E32"/>
<path d="M80.0641 152.209L80.0629 152.197C80.0629 152.196 80.0618 152.194 80.0595 152.193C80.0595 152.192 80.0606 152.192 80.0606 152.189L79.9546 151.263C79.9535 151.256 79.9466 151.253 79.9443 151.247C79.9431 151.232 79.9397 151.22 79.9362 151.208C79.9327 151.201 79.9397 151.195 79.9362 151.186L79.6113 150.302C79.601 150.276 79.5745 150.268 79.5606 150.246C79.5457 150.223 79.5491 150.196 79.5295 150.178L78.3752 149.078C78.3556 149.058 78.3268 149.063 78.3038 149.05C78.2784 149.035 78.2692 149.007 78.2416 148.999L76.6541 148.535C76.6357 148.53 76.623 148.543 76.6058 148.54C76.5896 148.539 76.5781 148.521 76.5608 148.521H76.5424L75.0563 148.598C75.0494 148.598 75.0459 148.605 75.0413 148.607C75.0344 148.607 75.031 148.602 75.0252 148.602L74.6715 148.655L74.6139 147.547C74.6139 147.535 74.6024 147.531 74.6013 147.519C74.5967 147.481 74.5736 147.455 74.5552 147.42C74.5333 147.379 74.5172 147.339 74.4803 147.311C74.4699 147.304 74.4699 147.291 74.4607 147.284L73.8202 146.874L73.3099 144.849C73.2914 144.783 73.2442 144.739 73.1981 144.697C73.1831 144.682 73.182 144.659 73.1636 144.647L73.1624 144.646C73.1613 144.646 73.1613 144.646 73.159 144.645L69.8713 142.629L70.021 140.053C70.021 140.048 70.0176 140.046 70.0176 140.041C70.0176 140.037 70.0222 140.033 70.0222 140.029L69.9681 136.019C69.9681 136 69.9519 135.991 69.9485 135.974C69.9473 135.959 69.9588 135.946 69.9531 135.931L69.3183 133.778V132.368C69.3183 132.355 69.3057 132.346 69.3034 132.333C69.3022 132.321 69.3137 132.31 69.3103 132.299L67.4924 123.927L67.1341 121.524C67.1307 121.502 67.1088 121.493 67.103 121.475C67.0961 121.456 67.1065 121.435 67.0961 121.415L65.6446 118.754L65.4303 117.277L65.3002 115.105C65.2967 115.067 65.2656 115.037 65.2518 115.003C65.2391 114.972 65.2437 114.937 65.2207 114.908L65.1942 114.878C65.1873 114.87 65.1838 114.866 65.178 114.859L63.7726 113.242L63.806 112.405L64.7633 108.896C64.7679 108.88 64.7553 108.866 64.7564 108.853C64.7599 108.837 64.7749 108.828 64.7749 108.814L64.8463 102.724C64.8463 102.713 64.8382 102.709 64.8359 102.701C64.8359 102.693 64.844 102.686 64.8428 102.678L64.3313 98.7367L63.4708 89.2441V89.243L63.2842 86.0739L63.4593 84.87L63.6586 84.7203C63.6586 84.7203 63.6586 84.7191 63.6597 84.7191C63.7162 84.6765 63.7599 84.6131 63.7784 84.5371L64.0376 83.5164L64.1862 83.3529L66.2275 82.202V82.2009C66.2805 82.1709 66.3254 82.1283 66.3542 82.0718L66.9533 80.9555C66.9659 80.929 66.9544 80.9025 66.9613 80.8761C66.9694 80.8484 66.9947 80.83 66.9947 80.7989V79.8416C66.9947 79.7989 66.9636 79.7667 66.9487 79.7298C66.936 79.6964 66.9406 79.6584 66.9152 79.6296L66.2068 78.7921L66.572 77.0284C66.5731 77.0215 66.5674 77.0169 66.5685 77.0099C66.5697 77.003 66.5766 76.9996 66.5766 76.9938L67.0247 72.4548C67.0247 72.4468 67.0178 72.4422 67.0178 72.433C67.0178 72.4249 67.0258 72.4203 67.0258 72.4111L66.9418 69.5276V69.5265V69.5253L66.777 65.1571L66.6618 58.7844C66.6618 58.7763 66.6538 58.7728 66.6538 58.7648C66.6538 58.7579 66.6607 58.7521 66.6584 58.7452L65.9775 53.8169C65.9764 53.81 65.9695 53.8066 65.9672 53.8008C65.966 53.7939 65.9718 53.7893 65.9706 53.7824L64.935 49.6203L64.897 47.6319C64.897 47.6273 64.8923 47.625 64.8923 47.6216C64.8923 47.6181 64.8958 47.6147 64.8958 47.6112L64.6931 45.0054C64.6919 44.98 64.6677 44.9662 64.6619 44.9432C64.655 44.9213 64.6666 44.9006 64.655 44.8787L63.5883 42.8373C63.5848 42.8327 63.5779 42.8327 63.5756 42.8258C63.5722 42.8212 63.5756 42.8143 63.5722 42.8097L61.82 40.129C61.8119 40.1163 61.7935 40.1163 61.7831 40.1025C61.7727 40.091 61.7762 40.0725 61.7635 40.0633L59.4353 37.9886C59.4319 37.9851 59.4273 37.9874 59.4238 37.9851C59.4204 37.9816 59.4227 37.977 59.4192 37.9747L56.7685 35.8942C56.7616 35.8896 56.7523 35.8931 56.7454 35.8873C56.7374 35.8827 56.7374 35.8712 56.7293 35.8654L53.7975 34.1847L52.9208 33.5373L52.8217 29.7633C52.8206 29.7299 52.7952 29.7126 52.7871 29.6826C52.7802 29.6561 52.7906 29.6285 52.7756 29.602L52.3045 28.8106C52.2941 28.7944 52.2745 28.7944 52.2653 28.7795C52.2538 28.7668 52.2572 28.7461 52.2434 28.7368L51.9888 28.5041L52.3816 27.9431C52.3885 27.9351 52.3828 27.9235 52.3885 27.9155C52.3955 27.9028 52.4104 27.8959 52.4162 27.8809L53.0763 26.3004C53.0809 26.2888 53.0728 26.2773 53.0763 26.2658C53.0809 26.2543 53.0947 26.2462 53.0959 26.2324L53.1938 25.7152C53.2019 25.7152 53.2099 25.7163 53.2191 25.7163C53.279 25.7163 53.3378 25.7002 53.3931 25.6668L53.6477 25.5078C53.6603 25.4997 53.6603 25.4813 53.6742 25.4732C53.6857 25.4629 53.7018 25.4686 53.711 25.4571L54.0497 25.1057C54.0578 25.0954 54.0543 25.0827 54.0624 25.0723C54.0774 25.0539 54.0969 25.0424 54.1073 25.0228L54.3066 24.6196C54.3112 24.6092 54.3055 24.5977 54.3078 24.5885C54.3147 24.5758 54.3273 24.5689 54.3308 24.5539L54.7835 22.7753L55.2063 21.8848C55.2144 21.8698 55.2052 21.8537 55.2075 21.8387C55.2144 21.8203 55.2305 21.8111 55.234 21.7938L55.3284 21.1775C55.3319 21.1613 55.3169 21.1475 55.3169 21.1325C55.3169 21.1141 55.3319 21.1014 55.3296 21.0842L55.2582 20.5554C55.2536 20.522 55.2236 20.5058 55.2121 20.4759C55.1971 20.4425 55.2017 20.4068 55.1775 20.378L55.1211 20.3158L55.2121 19.3562L55.4033 18.6673L55.6994 18.233L56.0576 17.7848C56.0795 17.7583 56.0703 17.7272 56.0841 17.6973C56.0991 17.6627 56.1291 17.6351 56.1302 17.5948L56.1567 17.066C56.1567 17.0533 56.1452 17.0441 56.1452 17.0326C56.1452 17.0199 56.1556 17.0107 56.1533 16.998L56.0669 16.4312L56.1233 16.1306C56.1268 16.111 56.1118 16.096 56.1118 16.0799C56.1129 16.0603 56.1302 16.0453 56.1268 16.0269L56.0934 15.7827C56.0887 15.7458 56.0565 15.7251 56.0404 15.6916C56.0219 15.6548 56.0219 15.6122 55.9908 15.5845L55.1199 14.7781C55.1153 14.7735 55.1072 14.7747 55.1015 14.7712C55.0946 14.7666 55.0969 14.7585 55.09 14.7528L54.8123 14.55L54.507 13.7275L54.2594 12.9798C54.2513 12.9545 54.226 12.9464 54.2144 12.9268C54.2029 12.9072 54.2075 12.8819 54.1914 12.8646L53.4553 12.0513C53.4253 12.0179 53.3838 12.0179 53.3493 12.0006C53.3159 11.9822 53.2951 11.9511 53.2537 11.9465L53.2272 11.943H53.2237L52.8631 11.8969L52.544 11.6654L51.9035 11.0433C51.877 11.0168 51.8413 11.0203 51.8091 11.0064C51.7757 10.9903 51.7561 10.9581 51.718 10.9534L50.7918 10.8279C50.7769 10.8267 50.7688 10.8382 50.7573 10.8382C50.7423 10.8382 50.7308 10.8233 50.7181 10.8267L50.0753 10.8878C50.0557 10.8889 50.0442 10.9097 50.0269 10.9143C50.0108 10.9189 49.9901 10.9074 49.9739 10.9154L49.626 11.0686L49.3887 10.8717C49.3737 10.8601 49.3553 10.8647 49.3426 10.8567C49.3277 10.8463 49.323 10.8267 49.3081 10.8221L48.739 10.5813L48.618 10.382C48.6053 10.3602 48.58 10.3567 48.5616 10.3429C48.5316 10.3118 48.5074 10.2922 48.4671 10.2738C48.4256 10.2542 48.3899 10.2438 48.345 10.2438C48.322 10.2427 48.3035 10.2242 48.2805 10.2277L48.0167 10.2726C48.004 10.2738 47.9971 10.2887 47.9833 10.2945C47.9418 10.306 47.9141 10.3314 47.8807 10.359C47.8646 10.3705 47.8439 10.3751 47.8312 10.3901L47.4994 10.2634C47.496 10.2622 47.4948 10.2645 47.4914 10.2634C47.4879 10.2622 47.4868 10.2588 47.4833 10.2565L46.7092 10.0088C46.678 9.99728 46.6493 10.0169 46.6181 10.0157C46.5905 10.0146 46.5686 9.99613 46.5387 10.0007L46.0041 10.1113L45.4132 10.0411C45.3982 10.0399 45.3878 10.0526 45.3751 10.0526C45.3625 10.0526 45.3498 10.0399 45.3371 10.0411L44.8567 10.0987C44.8222 10.1033 44.8026 10.1332 44.7703 10.147C44.7369 10.162 44.7024 10.1574 44.6747 10.1816L44.2243 10.5883L43.4939 10.9661L43.04 10.8797C43.0055 10.8716 42.9824 10.8947 42.9513 10.8981C42.9214 10.8993 42.8949 10.8832 42.8649 10.8935L42.6069 10.988C42.585 10.996 42.5792 11.0191 42.5608 11.0306C42.5262 11.0525 42.5032 11.0721 42.4767 11.1078C42.4456 11.1447 42.4283 11.1804 42.4168 11.2264C42.4122 11.2483 42.3903 11.261 42.3892 11.284L42.3811 11.5041L42.3465 11.5455L41.7797 11.6216C41.7751 11.6216 41.7717 11.6285 41.7671 11.6296C41.7625 11.6296 41.7567 11.625 41.7521 11.6262L41.3454 11.7172C41.3235 11.7218 41.3143 11.7437 41.2959 11.7518C41.2763 11.7598 41.2544 11.7506 41.236 11.7633L40.7291 12.095L40.1692 12.2713L39.6589 12.3462C39.6462 12.3473 39.6405 12.3612 39.6278 12.3646C39.5852 12.3761 39.5564 12.4015 39.5218 12.4291C39.4873 12.4556 39.4538 12.4741 39.4331 12.5121C39.425 12.5224 39.4101 12.5247 39.4055 12.5374L39.0771 13.2447L38.9124 13.2827C38.8698 13.2931 38.8444 13.3311 38.8099 13.3553C38.7765 13.3784 38.7373 13.3853 38.712 13.4175L38.144 14.2401C38.1313 14.2597 38.1394 14.2815 38.1313 14.3011C38.121 14.3265 38.0968 14.3357 38.0933 14.3622L38.0484 14.5914C38.0403 14.6283 38.0645 14.6594 38.0703 14.694C38.0737 14.7285 38.0588 14.7596 38.0737 14.793L38.2235 15.1202L38.1371 15.2262C38.1244 15.2423 38.1302 15.2642 38.121 15.2826C38.1106 15.3011 38.0876 15.308 38.083 15.3253L38.0254 15.4958L37.7673 15.6351C37.7293 15.657 37.7166 15.6974 37.6878 15.7331C37.6648 15.7607 37.6302 15.7722 37.6152 15.8091L37.4851 16.1432L37.3929 16.1581C37.3883 16.1581 37.386 16.1651 37.3814 16.1651C37.3768 16.1662 37.371 16.1616 37.3664 16.1639C37.3272 16.1743 37.3054 16.21 37.272 16.233C37.2374 16.2584 37.1959 16.2699 37.1729 16.3056C37.1475 16.3425 37.151 16.3862 37.1429 16.43C37.1349 16.4669 37.1095 16.4991 37.1164 16.5372C37.1164 16.5418 37.1233 16.5452 37.1233 16.5498C37.1245 16.5544 37.1199 16.5579 37.1222 16.5625L37.2708 17.1673L36.9275 17.3804C36.901 17.3966 36.8975 17.4265 36.878 17.4484C36.8584 17.4703 36.8284 17.4749 36.8134 17.4991L36.6038 17.8735C36.5819 17.9103 36.5957 17.9495 36.5911 17.9875C36.5842 18.0255 36.56 18.0601 36.5681 18.0993L36.7777 19.1188C36.7846 19.1522 36.8123 19.1695 36.8261 19.1983C36.8365 19.2178 36.8296 19.2409 36.8446 19.2593L37.0888 19.5669L36.8952 19.8918C36.8734 19.9263 36.8849 19.9678 36.8791 20.007C36.871 20.0485 36.8515 20.0899 36.8595 20.1314C36.8699 20.1706 36.9045 20.1994 36.9286 20.2339C36.954 20.2685 36.9598 20.3088 36.9943 20.333L37.2063 20.4747L37.1602 21.1221C37.159 21.1475 37.1786 21.1613 37.1821 21.1866C37.1855 21.212 37.1706 21.235 37.1786 21.2592L37.4367 21.9723C37.4482 22.0023 37.4712 22.0149 37.4897 22.0403C37.5 22.0552 37.4943 22.0737 37.5058 22.0852L38.0576 22.6762L38.1636 23.3224C38.1671 23.342 38.1855 23.3535 38.1912 23.3708C38.1959 23.3858 38.1866 23.4019 38.1947 23.4157L38.5749 24.1818C38.5703 24.1899 38.5749 24.2003 38.5714 24.2095C38.5553 24.251 38.5564 24.2867 38.5587 24.3304C38.5599 24.3754 38.5622 24.4111 38.5806 24.4514C38.5841 24.4595 38.5806 24.4675 38.5852 24.4768C38.5772 24.4871 38.5622 24.4848 38.5541 24.4952C38.5127 24.494 38.477 24.4871 38.4366 24.5021C38.4251 24.5067 38.4147 24.4986 38.4032 24.5032C38.3698 24.5182 38.3641 24.5516 38.3387 24.5747C38.3122 24.5977 38.2788 24.6023 38.2615 24.6323C38.2546 24.6426 38.2615 24.6553 38.2569 24.6657C38.2373 24.7048 38.2408 24.7452 38.2373 24.7878C38.2362 24.8304 38.227 24.8684 38.2419 24.9099C38.2466 24.9214 38.2385 24.9329 38.2431 24.9445L38.4873 25.4698C38.5207 25.5377 38.5749 25.5838 38.6371 25.6172C38.6417 25.6207 38.644 25.6276 38.6486 25.6299L39.4527 26.002L39.5817 26.5423C39.5852 26.5549 39.5979 26.5618 39.6013 26.5734C39.5967 26.5803 39.5967 26.586 39.5909 26.5918C39.5598 26.6252 39.5449 26.6563 39.5287 26.6978C39.5126 26.7392 39.5034 26.7738 39.5057 26.8164C39.5068 26.8383 39.4907 26.8533 39.4953 26.8729C39.5022 26.9028 39.5264 26.919 39.538 26.9455C39.5483 26.965 39.5414 26.9846 39.5541 27.0031L39.7637 27.2807C39.7753 27.2968 39.7983 27.2922 39.8133 27.306C39.8144 27.3095 39.8167 27.3129 39.8179 27.3141L39.3341 27.4443C39.3145 27.4489 39.3064 27.4708 39.2891 27.4788C39.2707 27.4869 39.2511 27.4788 39.2327 27.4903L38.3525 28.0963C38.3249 28.1159 38.3214 28.1493 38.303 28.1735C38.2811 28.2 38.2489 28.208 38.235 28.2392L37.954 28.9027C37.9528 28.9073 37.9551 28.9142 37.954 28.9188C37.9528 28.9234 37.9459 28.9257 37.9436 28.9304L37.4528 30.436C37.4459 30.4545 37.4597 30.4706 37.4574 30.489C37.454 30.5074 37.4355 30.519 37.4355 30.5374V31.3818L36.8261 32.0626C36.8112 32.0811 36.8158 32.1018 36.8043 32.1226C36.7939 32.141 36.7708 32.1456 36.7651 32.1652L36.4713 32.9382L34.4749 33.8264C34.4715 33.8275 34.4715 33.831 34.468 33.8333C34.4646 33.8344 34.4599 33.8333 34.4565 33.8344L32.9335 34.6258C32.9186 34.6328 32.9174 34.6512 32.9036 34.6604C32.8909 34.6708 32.8725 34.665 32.861 34.6765L28.2173 38.9504C28.2058 38.9619 28.2069 38.9803 28.1977 38.9896C28.1873 39.0022 28.1701 39.0022 28.1631 39.0161L26.8268 41.1253C26.8222 41.1334 26.8268 41.1438 26.8222 41.1518C26.8176 41.1622 26.8061 41.1622 26.8027 41.1714L24.7256 45.913C24.7244 45.9142 24.7256 45.9176 24.7256 45.9199C24.7256 45.9211 24.7221 45.9211 24.7221 45.9234L23.6899 48.5061C23.6865 48.5142 23.6934 48.5211 23.6899 48.5292C23.6865 48.5373 23.6773 48.5407 23.675 48.5488L22.0138 55.1038C22.0126 55.1072 22.0172 55.1118 22.0149 55.1153C22.0149 55.1187 22.0103 55.1199 22.0103 55.1234L20.8837 61.0838C20.8825 61.0907 20.8883 61.0965 20.8883 61.1034C20.8871 61.1115 20.8779 61.1149 20.8779 61.123L20.5001 66.7643C20.5001 66.7747 20.5081 66.7805 20.5104 66.792C20.5104 66.8024 20.4989 66.8104 20.5001 66.8219L21.2005 73.4828V73.484L21.4678 76.4826C21.4689 76.5045 21.4896 76.516 21.4943 76.5333C21.4989 76.5517 21.4873 76.5702 21.4954 76.5874L24.0851 82.345L23.7683 85.5129C23.7648 85.5475 23.7902 85.5729 23.7959 85.6051C23.8028 85.6362 23.7879 85.6673 23.804 85.6973L24.3362 86.7329C24.3708 86.7986 24.4284 86.8423 24.4917 86.8735C24.4987 86.8769 24.4998 86.885 24.5067 86.8884L26.7992 87.8215L27.2784 89.2085L27.6517 91.44C27.6528 91.4503 27.6632 91.4561 27.6666 91.4665C27.6678 91.4745 27.662 91.4814 27.6655 91.4895L28.7749 94.85C28.7979 94.9191 28.8405 94.9756 28.897 95.0171L30.0709 95.8477L30.3842 98.4293C30.3842 98.4304 30.3877 98.4327 30.3877 98.4339C30.3877 98.4373 30.3865 98.4385 30.3865 98.4408L31.4314 105.008C31.4325 105.019 31.4429 105.023 31.444 105.034C31.4475 105.042 31.4394 105.05 31.4429 105.06L32.9854 109.795C32.99 109.81 33.005 109.817 33.0108 109.83C33.0154 109.84 33.0108 109.852 33.0154 109.861L33.6467 110.939L34.5809 117.582L34.4105 121.722C34.4105 121.725 34.4139 121.728 34.4139 121.732C34.4139 121.735 34.4105 121.737 34.4105 121.74L34.4335 123.504C34.4335 123.516 34.4462 123.526 34.4485 123.538C34.4496 123.551 34.4381 123.561 34.4416 123.573L35.6857 128.962L37.5681 146.272L36.2894 146.856C36.2548 146.871 36.2468 146.905 36.2203 146.931C36.1926 146.956 36.1557 146.965 36.1362 146.999L35.6719 147.848C35.6293 147.928 35.6224 148.019 35.6454 148.1L35.8217 148.705L35.7007 148.799C35.6788 148.815 35.6788 148.844 35.6639 148.864C35.6339 148.898 35.6155 148.928 35.6028 148.97C35.5901 149.011 35.5901 149.047 35.5947 149.091C35.5959 149.117 35.5821 149.14 35.5901 149.167L36.3032 151.272C36.3159 151.312 36.3481 151.337 36.3746 151.368C36.3908 151.388 36.4 151.41 36.4173 151.424C36.4737 151.469 36.5417 151.497 36.6154 151.497C36.635 151.497 36.6534 151.496 36.673 151.492L37.0566 151.423L37.082 153.189L36.6984 154.763C36.6949 154.775 36.7053 154.783 36.703 154.794C36.7018 154.804 36.6903 154.81 36.6903 154.822L36.5901 156.508C36.5889 156.535 36.6097 156.55 36.6131 156.574C36.6166 156.599 36.6016 156.622 36.612 156.646L37.5117 158.985C37.5163 158.998 37.5278 159.003 37.5347 159.015C37.5393 159.023 37.5347 159.035 37.5393 159.043L38.0335 159.831C38.0462 159.85 38.0715 159.846 38.0877 159.862C38.1107 159.888 38.1176 159.923 38.1487 159.941L39.2524 160.577C39.2777 160.592 39.303 160.592 39.3295 160.599C39.3411 160.602 39.3457 160.615 39.3572 160.617L40.9884 160.915C41.0103 160.919 41.0276 160.922 41.0483 160.922H41.0633L42.4503 160.861C42.4514 160.861 42.4537 160.857 42.4572 160.857C42.4791 160.857 42.4987 160.856 42.5217 160.849L43.8384 160.494C43.8983 160.478 43.9329 160.432 43.972 160.392C43.987 160.377 44.0101 160.384 44.0216 160.365L44.7566 159.326C44.7635 159.318 44.7577 159.308 44.7635 159.3C44.7704 159.287 44.7796 159.28 44.7854 159.266C44.7888 159.259 44.7957 159.258 44.7969 159.251L45.4547 157.529C45.4662 157.499 45.4501 157.473 45.4535 157.443C45.457 157.411 45.4789 157.388 45.4731 157.356L45.2473 155.946V155.945L44.9225 153.672L44.775 152.163C44.8234 152.189 44.8752 152.202 44.9271 152.202C45.0215 152.202 45.1148 152.163 45.1793 152.083L46.0353 151.062C46.0364 151.061 46.0353 151.057 46.0364 151.055C46.0376 151.054 46.0433 151.055 46.0445 151.051L46.7311 150.155C46.7564 150.122 46.7495 150.08 46.761 150.044C46.7725 150.006 46.7944 149.972 46.791 149.933C46.7898 149.888 46.761 149.853 46.7403 149.812C46.7253 149.781 46.7276 149.746 46.7023 149.72L46.6297 149.648L48.0236 148.472C48.0248 148.471 48.0236 148.469 48.0248 148.469C48.0847 148.418 48.1273 148.344 48.1365 148.26L48.1377 148.245L48.2448 147.391C48.2482 147.368 48.2298 147.352 48.2287 147.33C48.2275 147.305 48.2436 147.288 48.2367 147.262L47.5121 144.589L47.4522 141.657L47.352 125.289C47.352 125.282 47.3451 125.279 47.3451 125.274C47.3451 125.267 47.3497 125.264 47.3497 125.258L46.6516 118.302L46.5767 111.63L47.7967 106.104L48.6422 102.574L50.611 109.418L50.9267 111.535C50.9267 111.539 50.9313 111.54 50.9313 111.544C50.9313 111.547 50.9301 111.548 50.9301 111.552L52.415 118.915L54.1062 131.253C54.1062 131.258 54.1131 131.261 54.1131 131.266C54.1143 131.27 54.1096 131.274 54.1119 131.278L55.3089 136.775C55.3123 136.787 55.325 136.794 55.3285 136.808C55.3331 136.819 55.325 136.83 55.3296 136.839L57.6267 141.988L60.5413 149.349L61.3223 153.042L61.2451 153.083C61.2198 153.096 61.2152 153.123 61.1967 153.141C61.1783 153.16 61.1507 153.16 61.1345 153.179C61.123 153.195 61.1299 153.216 61.1219 153.232C61.1 153.271 61.0942 153.308 61.0919 153.353C61.0884 153.396 61.0884 153.43 61.1034 153.471C61.108 153.49 61.0988 153.51 61.108 153.528C61.1276 153.563 61.1587 153.586 61.1875 153.612C61.1979 153.619 61.1956 153.634 61.2059 153.64L62.0296 154.245L63.1494 155.64L63.6816 157.985C63.6851 157.998 63.6977 158.005 63.7012 158.019C63.7058 158.029 63.6977 158.041 63.7023 158.052L64.1551 159.05L64.109 159.137C64.1021 159.15 64.1102 159.164 64.1056 159.175C64.0894 159.214 64.0929 159.252 64.094 159.294C64.094 159.339 64.0929 159.378 64.1102 159.418C64.1148 159.431 64.109 159.446 64.1148 159.456L64.9108 160.834C64.9177 160.846 64.9361 160.842 64.9419 160.853C65.003 160.937 65.0871 161 65.1965 161H66.3612C66.3888 161 66.4142 160.997 66.4418 160.99L68.9969 160.341C69.0039 160.34 69.0073 160.331 69.0131 160.33C69.0257 160.325 69.0407 160.326 69.0545 160.319L72.1004 158.909C72.1085 158.906 72.1108 158.894 72.1165 158.891C72.181 158.856 72.2306 158.804 72.2605 158.734C72.264 158.727 72.2709 158.726 72.272 158.719L72.2732 158.718L72.7582 157.327L73.416 156.631L74.2615 156.444L76.2234 156.181C76.228 156.181 76.2314 156.174 76.236 156.173C76.2614 156.17 76.2821 156.17 76.3052 156.16L77.676 155.599C77.6887 155.595 77.6922 155.578 77.7037 155.572C77.7187 155.564 77.7348 155.567 77.7463 155.557L79.0527 154.582C79.063 154.574 79.063 154.56 79.0711 154.551C79.0815 154.543 79.0942 154.548 79.1022 154.538L79.7727 153.797C79.783 153.785 79.7796 153.769 79.7876 153.757C79.8026 153.736 79.8245 153.723 79.8337 153.7L80.101 153.029C80.1114 153.003 80.0964 152.98 80.0998 152.952C80.1044 152.926 80.1275 152.906 80.1252 152.877L80.0641 152.209ZM53.7329 22.7221L53.7755 22.7002C53.7905 22.6933 53.7917 22.6748 53.8055 22.6668C53.8446 22.6403 53.87 22.6069 53.8965 22.5643C53.9161 22.5331 53.9345 22.5113 53.9426 22.4755C53.946 22.4606 53.961 22.4525 53.9622 22.4387L54.0197 21.918L54.3861 21.1554L54.5888 20.8501L54.6303 20.8351L54.6683 21.1335L54.5911 21.6484L54.1753 22.5216C54.1707 22.5331 54.1764 22.5447 54.1741 22.5562C54.1707 22.5665 54.158 22.5712 54.1545 22.5827L53.7018 24.3625L53.5405 24.6874L53.3343 24.9017L53.7329 22.7221ZM79.32 151.513L78.3604 151.455C78.3385 151.451 78.3258 151.471 78.3063 151.471C78.2878 151.473 78.2728 151.46 78.2567 151.464L76.9849 151.803C76.9665 151.808 76.9596 151.826 76.9457 151.834C76.9296 151.841 76.9112 151.833 76.8974 151.842L71.2306 155.351L70.9196 155.35L71.1604 155.186C71.1638 155.183 71.1638 155.178 71.1673 155.175C71.1719 155.171 71.1788 155.174 71.1834 155.17L73.7097 153.152L75.773 151.867L77.494 151.347L78.8073 151.18L79.3188 151.499L79.32 151.513ZM52.1593 29.8619L52.1224 30.522L51.8252 31.5703L51.3989 32.3387L51.1167 32.5322L51.8125 29.2791L52.1593 29.8619ZM39.2407 24.0397L38.8075 23.1711L38.6934 22.4742L38.5759 21.7461L38.5633 20.366L38.6163 20.2681L38.7464 20.5261C38.766 20.5641 38.7994 20.5906 38.8328 20.6183C38.8398 20.6252 38.8398 20.6367 38.8478 20.6436L39.2591 20.9454L39.766 22.1378L39.971 23.7632C39.9745 23.7966 40.001 23.8128 40.0125 23.8427C40.0229 23.8658 40.0125 23.8923 40.0286 23.9153L40.7705 24.9544C40.7751 24.959 40.7832 24.9578 40.7889 24.9625C40.7924 24.9694 40.7901 24.9774 40.7958 24.9843C40.8604 25.0569 40.9514 25.0938 41.0401 25.0938C41.1057 25.0938 41.1737 25.0719 41.2313 25.0327C41.2382 25.0281 41.2359 25.02 41.2428 25.0143C41.2474 25.0108 41.2555 25.0131 41.2612 25.0074L41.7255 24.588C41.7508 24.5662 41.7485 24.535 41.7635 24.5086C41.7866 24.4717 41.8061 24.4406 41.8142 24.3991C41.8223 24.3565 41.8131 24.3185 41.8027 24.2747C41.7958 24.2447 41.8096 24.2171 41.7946 24.1883L41.4225 23.4798L41.0885 21.632L41.1103 20.6989L41.2486 19.108L41.3742 18.3949L41.623 18.0182L42.4582 18.0574H42.4743C42.5192 18.0574 42.5665 18.047 42.6102 18.0274L43.6804 17.5471C43.6851 17.5459 43.6874 17.539 43.692 17.5355C43.6989 17.5321 43.7069 17.5344 43.715 17.5286L44.344 17.1542C44.3486 17.1508 44.3486 17.1427 44.3555 17.1393C44.4212 17.0966 44.4742 17.0333 44.496 16.9515L44.6827 16.2062L45.0951 15.7235L45.3232 16.1232C45.3232 16.1232 45.3243 16.1232 45.3243 16.1244L45.6745 16.7303L45.4649 17.0955C45.4464 17.1266 45.458 17.1612 45.4522 17.1957C45.4418 17.2349 45.4292 17.2718 45.4372 17.3132C45.4441 17.3559 45.4706 17.3881 45.4937 17.425C45.5121 17.4526 45.5098 17.4849 45.5351 17.5079L45.9072 17.8305C45.9671 17.8835 46.0432 17.9169 46.1273 17.9169C46.1399 17.9169 46.1549 17.9158 46.1687 17.9135L47.421 17.7545C47.482 17.7464 47.5235 17.7049 47.5696 17.6681C47.5891 17.6554 47.6145 17.6577 47.6306 17.6404L47.9347 17.2856C47.9497 17.2672 47.9451 17.2465 47.9543 17.2257C47.9774 17.1877 47.9877 17.1531 47.9912 17.1082C47.9981 17.0667 47.9958 17.0322 47.9843 16.9907C47.9774 16.9677 47.9889 16.9458 47.9797 16.925L47.9221 16.8098L48.1052 16.7534C48.1156 16.7499 48.1179 16.7384 48.1283 16.7338C48.1928 16.7073 48.2492 16.6658 48.2872 16.6036C48.2918 16.5967 48.2988 16.5933 48.3022 16.5875L48.3068 16.5829L48.6847 15.8145L49.0199 15.5507L49.2756 15.7454L49.9876 16.9481C49.9945 16.9584 50.0095 16.955 50.0152 16.9642C50.0256 16.9769 50.0198 16.9953 50.0314 17.0057L50.7283 17.7475C50.7468 17.766 50.7709 17.7625 50.7905 17.7752C50.8136 17.7913 50.8205 17.8178 50.8447 17.8282L51.9276 18.2637C51.9667 18.2798 52.0105 18.289 52.0497 18.289C52.0681 18.289 52.0865 18.2878 52.1061 18.2844L52.5589 18.2049L52.8595 19.0009L53.0738 20.7577L53.1072 22.4742L52.6568 24.9418C52.6441 25.0109 52.6695 25.0754 52.6959 25.1353C52.6706 25.163 52.6533 25.1952 52.6384 25.2332C52.6303 25.2528 52.6072 25.2643 52.6038 25.2839V25.2874L52.6026 25.2885V25.2897L52.4552 26.0811L51.8193 27.6006L51.4069 28.1904L50.9046 28.6259C50.8885 28.6408 50.892 28.6627 50.8781 28.6788C50.8655 28.6938 50.8436 28.695 50.8332 28.7134L49.9047 30.3423L48.9612 31.3791L48.0627 31.8238L46.8807 31.9229L45.693 31.7846L44.5341 30.893L43.1218 29.0429L41.7774 26.5073C41.6898 26.3437 41.4882 26.2861 41.3292 26.3702C41.168 26.4566 41.1058 26.6559 41.1922 26.8184L42.5492 29.3769C42.5538 29.3885 42.5677 29.3919 42.5746 29.4023C42.578 29.4092 42.5746 29.4173 42.5792 29.4242L44.0342 31.3296C44.0445 31.3411 44.0606 31.3376 44.071 31.348C44.0825 31.3607 44.0814 31.3814 44.0964 31.3906L45.3647 32.3652C45.3993 32.3929 45.4407 32.3952 45.4799 32.4044C45.4983 32.409 45.5076 32.4297 45.526 32.4309L46.8393 32.5864C46.8519 32.5876 46.8658 32.5899 46.8773 32.5899C46.8853 32.5899 46.8957 32.5899 46.9049 32.5887L48.1813 32.4827C48.1882 32.4827 48.1917 32.4747 48.1975 32.4747C48.232 32.4701 48.2689 32.4666 48.3 32.4493L49.3057 31.9517C49.3287 31.9401 49.3322 31.9171 49.3506 31.901C49.3656 31.8894 49.3875 31.8929 49.4013 31.8779L50.4139 30.7651C50.4254 30.7524 50.4208 30.734 50.4301 30.7225C50.437 30.7121 50.4519 30.7156 50.4577 30.7064L51.0475 29.6696L50.3621 32.8688L49.3909 33.0185C49.3898 33.0185 49.3898 33.0197 49.3898 33.0197C49.3391 33.0277 49.2988 33.0658 49.2573 33.0992C49.2297 33.121 49.1928 33.1268 49.1732 33.1533C49.1732 33.1533 49.1698 33.1533 49.1698 33.1545L48.186 34.5668C48.1744 34.5852 48.1825 34.6037 48.1733 34.621C48.1652 34.6405 48.1422 34.6475 48.1387 34.667L47.7839 35.9665C47.7805 35.9791 47.7908 35.9918 47.7885 36.0045C47.7874 36.0172 47.7724 36.0241 47.7724 36.0391L47.7713 36.0782L47.3646 36.1393L46.8819 36.1001L46.5271 33.5265C46.519 33.4609 46.4776 33.4159 46.4384 33.3699C46.4257 33.3537 46.4234 33.3318 46.4085 33.3192C46.382 33.2973 46.3439 33.2996 46.3105 33.2881C46.2656 33.2685 46.223 33.2385 46.1734 33.2431L44.6874 33.3503L43.1748 33.2316L41.7648 32.9471L41.2325 32.7294L40.334 31.961L40.3996 31.84L40.8846 31.0486C40.9007 31.0221 40.8892 30.9921 40.8996 30.9645C40.9076 30.9334 40.9342 30.9138 40.9342 30.8781L40.9606 27.4359V27.4347L40.9676 26.368L40.971 25.5005C40.971 25.4752 40.9491 25.4625 40.9457 25.4406C40.9411 25.4176 40.9537 25.398 40.9457 25.3749C40.9353 25.3519 40.9111 25.3473 40.8996 25.3289C40.8881 25.3093 40.8915 25.2862 40.8743 25.2678L40.2003 24.5835C40.1876 24.5709 40.1669 24.5732 40.1542 24.5639C40.1393 24.5524 40.1381 24.5328 40.1208 24.5259L39.5494 24.2183H39.5483L39.2407 24.0397ZM48.4451 43.6466C48.4451 43.6397 48.4371 43.6351 48.4348 43.6282C48.4348 43.6201 48.4417 43.6155 48.4394 43.6063L47.785 40.216C47.785 40.2126 47.7816 40.2126 47.7804 40.2091C47.7804 40.2056 47.7816 40.2045 47.7816 40.201L46.9925 36.9063L46.974 36.768L47.3519 36.7991C47.3622 36.8003 47.3714 36.8003 47.3795 36.8003C47.3956 36.8003 47.4141 36.7991 47.429 36.7957L47.7481 36.7473L47.7078 37.8348C47.7078 37.8463 47.7193 37.8544 47.7193 37.8659C47.7193 37.8774 47.709 37.8878 47.7113 37.8993L48.0592 40.2079C48.0592 40.2091 48.0603 40.2091 48.0603 40.2091L48.475 43.3976L48.6398 45.7235L48.6236 46.0173L48.4451 43.6466ZM48.5834 52.1103H48.3415L48.4486 51.6195L48.5834 52.1103ZM39.6774 25.3724L39.4896 25.2849C39.5195 25.2734 39.5472 25.2653 39.5737 25.2457C39.5806 25.2411 39.5886 25.2423 39.5956 25.2377C39.6105 25.225 39.6071 25.2043 39.6186 25.1916C39.6416 25.1651 39.6693 25.1455 39.6831 25.1109C39.69 25.0925 39.6785 25.0764 39.682 25.0603C39.6831 25.0522 39.6923 25.0453 39.6923 25.0384L39.7764 25.0833L40.0633 25.3736L39.6774 25.3724ZM38.8134 28.5843L39.5668 28.0659L40.3052 27.8678L40.2822 30.7858L39.8962 31.4171L38.894 29.9586L38.6187 29.052L38.8134 28.5843ZM37.2259 91.1468L36.5128 90.9268L35.7559 90.3358L35.2007 89.7863L34.7479 88.6562V87.9581C34.7479 87.7761 34.5993 87.6275 34.4173 87.6275C34.2353 87.6275 34.0867 87.7761 34.0867 87.9581V90.9026C34.0867 90.928 34.1086 90.9406 34.1132 90.9637C34.1178 90.9867 34.1028 91.0063 34.1132 91.0293L35.3689 94.0486C35.3735 94.0602 35.3873 94.0648 35.3919 94.0763C35.3965 94.0844 35.3919 94.0924 35.3965 94.1016L36.5473 95.893L36.2087 96.5565L36.0059 96.8042L35.2986 96.3687C35.2721 96.3526 35.2445 96.3641 35.2157 96.3561C35.1892 96.3457 35.1742 96.3215 35.1442 96.3215L33.915 96.2443L32.5522 96.0358L30.5374 95.3619L29.3727 94.5382L28.306 91.3092L27.9523 89.1907L28.4212 88.42L30.1515 86.9339L32.2354 85.8372L33.7664 85.3983L34.3482 85.4674L35.0026 86.3464C35.0072 86.3533 35.0187 86.351 35.0244 86.3579C35.0325 86.366 35.029 86.3798 35.0371 86.3878L35.7467 87.0767L35.8009 87.3705L36.0209 88.5179C36.0255 88.5432 36.0474 88.5547 36.0555 88.5755C36.0635 88.5939 36.0543 88.6135 36.0658 88.6296L36.5923 89.4798L37.075 90.5166C37.1049 90.5776 37.1476 90.626 37.2006 90.6583C37.2017 90.6583 37.2017 90.6594 37.2017 90.6594L37.6959 90.9635V91.088L37.659 91.1479L37.2259 91.1468ZM43.5597 159.876L42.3939 160.189L41.0725 160.247L39.9862 160.05L42.6381 160.087H42.6427C42.6773 160.087 42.7142 160.08 42.7487 160.068L43.6334 159.764L43.5597 159.876ZM44.8119 157.369L44.2405 158.862L42.5909 159.426L39.7788 159.387L38.0877 158.618L37.2617 156.469L37.3562 154.888L37.7421 153.297C37.7455 153.282 37.734 153.269 37.7352 153.255C37.7363 153.243 37.7513 153.23 37.7513 153.216L37.7248 151.296L38.2282 151.193L40.2615 150.953L42.0021 151.044L43.7163 151.561L44.0711 151.766L44.2647 153.75C44.2647 153.753 44.2681 153.754 44.2681 153.757C44.2681 153.76 44.267 153.761 44.267 153.765L44.5918 156.042C44.5918 156.043 44.593 156.043 44.593 156.047V156.048L44.8119 157.369ZM45.5181 150.651V150.654L44.8511 151.45L44.5493 151.279H44.5481L44.0159 150.97C44.0032 150.962 43.9883 150.97 43.9767 150.965C43.9641 150.958 43.9606 150.943 43.9456 150.939L42.152 150.397C42.1393 150.394 42.1255 150.404 42.114 150.402C42.099 150.399 42.0909 150.384 42.076 150.382L40.2765 150.289H40.2581C40.25 150.289 40.2454 150.297 40.2362 150.297C40.2293 150.297 40.2247 150.293 40.2178 150.293L38.1234 150.54C38.1188 150.54 38.1165 150.545 38.1119 150.547C38.1073 150.547 38.1015 150.543 38.0969 150.544L37.3285 150.697L36.8401 150.786L36.2952 149.17L36.4069 149.083C36.4265 149.068 36.4265 149.041 36.4415 149.023C36.4715 148.988 36.4876 148.961 36.5026 148.919C36.5152 148.878 36.5187 148.842 36.5152 148.797C36.5141 148.772 36.5279 148.755 36.5221 148.729L36.3194 148.039L36.6662 147.407L37.4898 147.029L37.3481 147.832C37.3447 147.857 37.3608 147.873 37.3631 147.896C37.3643 147.939 37.3712 147.972 37.3896 148.012C37.4081 148.053 37.4265 148.083 37.461 148.114C37.476 148.129 37.4772 148.152 37.4956 148.165L39.0013 149.143C39.0266 149.159 39.0543 149.159 39.0819 149.168C39.0047 149.251 38.9552 149.356 38.9898 149.474C39.0312 149.618 39.1637 149.711 39.3054 149.711C39.3365 149.711 39.3676 149.706 39.3999 149.696L41.402 149.101L43.5736 148.819L44.3972 149.01L45.608 149.577L45.9006 149.864L46.0227 149.985L45.5181 150.651ZM47.814 87.7845L44.3524 87.4735C44.3512 87.4735 44.3512 87.4747 44.3489 87.4747C44.3489 87.4735 44.3478 87.4735 44.3478 87.4735L38.113 87.0092C38.1096 87.0092 38.1061 87.0127 38.1027 87.0127C38.0992 87.0127 38.0981 87.0081 38.0923 87.0081L36.4012 86.9804L36.3758 86.848C36.3678 86.8088 36.3367 86.7858 36.3159 86.75C36.301 86.7236 36.3044 86.6925 36.2814 86.6706L36.2445 86.636C36.2433 86.6348 36.241 86.6325 36.2399 86.6314L35.513 85.9229L35.0257 85.2686C35.0338 85.2432 35.0557 85.2294 35.0568 85.2041C35.058 85.1995 35.0614 85.1972 35.0614 85.1937C35.0649 85.1488 35.0349 85.1131 35.0234 85.0727C35.0119 85.0382 35.0188 84.9979 34.9935 84.9668L34.1594 83.8804V82.5499C34.1594 82.5188 34.1341 82.5003 34.126 82.4704C34.1179 82.4427 34.1306 82.4162 34.1156 82.3897L33.5707 81.399C33.5661 81.3886 33.5512 81.3875 33.5442 81.3771C33.5373 81.3668 33.5431 81.3541 33.5339 81.3437L32.0743 79.61L31.86 77.1954L31.8831 74.4651L32.3738 70.6761C32.375 70.6681 32.3669 70.6611 32.3669 70.6531C32.3681 70.645 32.3773 70.6404 32.3773 70.63L32.3358 66.2813C32.3358 66.2744 32.3289 66.2709 32.3289 66.2651C32.3289 66.2582 32.3335 66.2548 32.3335 66.249L32.1285 64.3782L32.8991 61.0719C32.9026 61.0592 32.8911 61.0466 32.8922 61.035C32.8934 61.0201 32.9084 61.012 32.9084 60.9982V56.0275C32.9084 56.0171 32.898 56.0113 32.8968 56.001C32.8968 55.9906 32.9049 55.9848 32.9038 55.9756L31.0594 44.0317C31.0318 43.8531 30.8567 43.7115 30.6827 43.7564C30.503 43.784 30.3774 43.9511 30.4074 44.1331L32.2471 56.0469V60.9672L31.473 64.2897C31.4684 64.3093 31.4834 64.3242 31.4811 64.3427C31.4799 64.3645 31.4626 64.3772 31.4649 64.3991L31.6734 66.308L31.7149 70.6163L31.2242 74.403C31.223 74.4099 31.2288 74.4145 31.2288 74.4226C31.2288 74.4295 31.2207 74.4341 31.2207 74.4422L31.1976 77.2001C31.1976 77.207 31.2046 77.2104 31.2046 77.2162C31.2046 77.2231 31.2 77.2266 31.2 77.2323L31.4257 79.7702C31.4292 79.8093 31.4603 79.8358 31.4753 79.8704C31.4868 79.8981 31.4799 79.9303 31.5018 79.9545L33.0098 81.7458L33.4947 82.6283V83.9854C33.4947 84.0245 33.5247 84.0533 33.5374 84.0879C33.5489 84.1224 33.5408 84.157 33.5639 84.187L33.9982 84.7514L33.7735 84.725C33.7516 84.7238 33.7355 84.7411 33.7125 84.7434C33.6894 84.7445 33.6675 84.7284 33.6445 84.7353L32.0225 85.1996C32.0098 85.203 32.0064 85.218 31.9925 85.2226C31.981 85.2272 31.9695 85.2191 31.958 85.2261L29.8095 86.3585C29.7968 86.3654 29.7945 86.3815 29.783 86.3896C29.7715 86.3965 29.7577 86.3907 29.7484 86.4011L27.9456 87.9505C27.9306 87.962 27.934 87.9839 27.9225 87.9954C27.9098 88.0104 27.8879 88.0104 27.8776 88.0289L27.6864 88.3445L27.3788 87.4575C27.3776 87.4529 27.3718 87.4529 27.3707 87.4471C27.3523 87.4045 27.3108 87.378 27.2751 87.3446C27.2486 87.3192 27.2336 87.2847 27.2002 87.2697C27.1956 87.2662 27.1933 87.2593 27.1887 87.2582L24.8697 86.3147L24.4389 85.4737L24.7545 82.3161L25.0794 79.0455C25.0978 78.8658 24.9653 78.7022 24.7822 78.6838C24.6105 78.6919 24.44 78.7978 24.4204 78.981L24.2177 81.0189L22.1222 76.3602L21.8595 73.4111C21.8595 73.4111 21.8595 73.4099 21.8584 73.4099C21.8584 73.4088 21.8595 73.4088 21.8595 73.4065L21.1614 66.7674L21.5358 61.1803L22.6556 55.2579V55.2568L24.3133 48.718L25.3293 46.1709C25.3293 46.1698 25.3305 46.1698 25.3305 46.1698L27.3983 41.4512L28.6943 39.4018L33.2769 35.1854L34.7572 34.4171L36.8631 33.4793C36.8712 33.4759 36.8712 33.4667 36.8792 33.4609C36.9449 33.4263 37.0013 33.3745 37.0324 33.3008C37.0336 33.2973 37.037 33.2962 37.037 33.2927L37.3561 32.454L38.0105 31.7237C38.0404 31.6891 38.0381 31.6465 38.0497 31.6085C38.0646 31.5716 38.0923 31.5439 38.0923 31.5048V30.5843L38.2409 30.127L38.2628 30.1949C38.2697 30.2168 38.2893 30.2261 38.2973 30.2433C38.3043 30.2583 38.2973 30.2733 38.3054 30.2848L39.6383 32.2202C39.6463 32.2317 39.6647 32.2282 39.6728 32.2386C39.6855 32.2536 39.6832 32.2731 39.6982 32.2847L40.8421 33.2627C40.8582 33.2754 40.879 33.2731 40.8951 33.2823C40.9101 33.2927 40.9147 33.3123 40.9296 33.3169L41.5494 33.5715C41.5656 33.5784 41.5805 33.5761 41.5955 33.5818C41.6001 33.5818 41.6036 33.5887 41.6082 33.5899L43.0632 33.8836C43.0758 33.8871 43.0896 33.8871 43.1012 33.8871C43.1012 33.8871 43.1012 33.8882 43.1023 33.8882L44.6667 34.0104C44.6748 34.0115 44.6852 34.0115 44.6932 34.0115C44.7013 34.0115 44.7094 34.0115 44.7186 34.0104L45.9224 33.9228L46.2703 36.4514V36.4526L46.3417 37.009C46.3429 37.0159 46.3498 37.0205 46.3521 37.0274C46.3533 37.0343 46.3475 37.0389 46.3486 37.0459L47.1401 40.3486L47.7909 43.7182L48.0352 46.9634L48.0893 50.2086L47.6066 52.3709C47.6032 52.3836 47.6147 52.3963 47.6135 52.4078C47.6124 52.4193 47.5986 52.4308 47.5986 52.4424C47.5986 52.4769 47.6251 52.4965 47.6331 52.5288C47.6458 52.5702 47.6527 52.6082 47.6792 52.6405C47.7057 52.6739 47.7403 52.69 47.7794 52.7119C47.8071 52.7269 47.8221 52.7568 47.8555 52.7649C47.8808 52.7695 47.9038 52.773 47.928 52.773H48.1573L48.352 58.5998L48.3186 64.0719V64.0742L48.3635 70.5797C48.3635 70.5808 48.3646 70.5831 48.3646 70.5843C48.3646 70.5877 48.3635 70.5889 48.3635 70.5912L48.6043 76.6932C48.6043 76.6967 48.6077 76.6978 48.6077 76.7001C48.6077 76.7013 48.6066 76.7036 48.6066 76.7047L49.4268 87.643L47.814 87.7845ZM61.5723 80.6893C61.5711 80.6904 61.5688 80.6893 61.5688 80.6904L60.4802 82.0417L59.0471 83.4195L54.9448 85.8007L50.4233 87.5563L50.0892 87.5863L49.2713 76.6698V76.6687L49.0282 70.5655L48.9833 64.0715L49.0167 58.5903C49.0167 58.5892 49.0155 58.5868 49.0132 58.5834C49.0132 58.5822 49.0167 58.5799 49.0167 58.5765L48.822 52.7694H49.019C49.049 52.7694 49.0766 52.7659 49.1066 52.7579C49.1377 52.7498 49.1492 52.7198 49.1757 52.7049C49.2125 52.6818 49.2436 52.6669 49.2713 52.63C49.2978 52.5954 49.3058 52.5609 49.3174 52.5182C49.3254 52.4906 49.3508 52.4699 49.3508 52.4388C49.3508 52.4226 49.3358 52.4123 49.3323 52.3973C49.3312 52.3812 49.3439 52.3673 49.3393 52.3524L48.7598 50.2166L49.2287 47.1315C49.2287 47.1269 49.2252 47.1211 49.2252 47.1165C49.2252 47.1096 49.2333 47.105 49.2333 47.0981L49.3047 45.7468C49.3047 45.7387 49.2966 45.7341 49.2966 45.7238C49.2966 45.7168 49.3035 45.7122 49.3035 45.7053L49.1354 43.3334C49.1354 43.3299 49.1307 43.3287 49.1307 43.3253C49.1307 43.3207 49.1342 43.3184 49.1342 43.3138L48.7183 40.1113C48.7183 40.1102 48.7172 40.1102 48.7172 40.1079C48.7172 40.1067 48.7183 40.1044 48.7183 40.1033L48.375 37.8246L48.4315 36.3708L48.443 36.0977L48.7736 34.887L49.6422 33.6382L50.6997 33.4746C50.6997 33.4746 50.7009 33.4746 50.7009 33.4735C50.7078 33.4735 50.7159 33.4735 50.7228 33.4723L50.9393 33.4239C50.9555 33.4205 50.9624 33.4044 50.9762 33.3974C51.0027 33.3871 51.0292 33.3894 51.0534 33.3721L51.8414 32.8341C51.8725 32.8122 51.8759 32.7765 51.8978 32.7477C51.9093 32.7328 51.9324 32.7374 51.9427 32.7201L52.2319 32.1994L52.2711 33.7143C52.2711 33.7223 52.2791 33.7269 52.2814 33.7361C52.2849 33.7753 52.3091 33.8041 52.3264 33.8398C52.3482 33.8813 52.3609 33.9239 52.3955 33.9516C52.4024 33.9562 52.4001 33.9665 52.407 33.9712L53.4357 34.7292C53.4427 34.7338 53.4484 34.7326 53.4553 34.7361C53.4599 34.7395 53.4599 34.7476 53.4668 34.7511L56.3929 36.4307L59.0057 38.4801L61.3016 40.5249L63.0192 43.1537L64.048 45.119L64.245 47.6396L64.283 49.666C64.283 49.681 64.2957 49.689 64.298 49.7005C64.3014 49.7132 64.2899 49.7259 64.2933 49.7374L65.3336 53.9169L66.0087 58.8071L66.1239 65.1707C66.1239 65.1719 66.125 65.1719 66.125 65.1742C66.125 65.1753 66.1239 65.1753 66.1239 65.1776L66.2886 69.5459L66.3727 72.4063L65.9269 76.9037L65.6458 78.2596L65.2599 77.9278C65.1239 77.8057 64.9131 77.8241 64.7945 77.9624C64.677 78.1006 64.6919 78.3091 64.8313 78.4266L65.6228 79.1051L66.3416 79.9542V80.7122L65.8267 81.6683L63.8222 82.7996C63.8141 82.8042 63.8141 82.8146 63.806 82.8192L63.0492 81.6119C63.0411 81.5969 63.0227 81.5969 63.0123 81.5854C63.0043 81.5738 63.0077 81.5577 62.9962 81.5485L62.2831 80.8677L63.0595 79.9564C63.0699 79.9449 63.0642 79.9265 63.0722 79.915C63.0849 79.8954 63.1068 79.8839 63.1148 79.862L63.4628 78.9657C63.4754 78.9346 63.4581 78.9047 63.4616 78.8713C63.4651 78.8401 63.4869 78.8137 63.48 78.7802L63.0872 76.8138C63.0861 76.8103 63.0826 76.8092 63.0803 76.8034C63.0803 76.7999 63.0838 76.7965 63.0815 76.793L62.1437 73.2161C62.1426 73.2091 62.1334 73.2057 62.1322 73.1999C62.1287 73.193 62.1357 73.1873 62.1322 73.178L60.0298 67.8006L58.978 64.2582L60.3904 60.194C60.3915 60.1894 60.3869 60.1836 60.3892 60.1779C60.3927 60.1709 60.3996 60.1675 60.4008 60.1617L62.093 53.0482C62.1345 52.8719 62.0251 52.6934 61.8488 52.6519C61.6737 52.6069 61.4917 52.7164 61.4525 52.8961L59.7625 59.9946L58.3202 64.1417C58.3087 64.1762 58.3272 64.2073 58.3249 64.2419C58.3249 64.2764 58.303 64.3075 58.3145 64.3444L59.4043 68.0158C59.4054 68.0204 59.4112 68.0227 59.4123 68.0273C59.4135 68.0342 59.4112 68.0388 59.4123 68.0434L61.5113 73.4093L62.4398 76.9447L62.813 78.8156L62.5204 79.569L61.5792 80.676C61.5723 80.6841 61.5746 80.6876 61.5723 80.6887L61.5723 80.6893ZM63.5111 155.039L62.518 153.804C62.5077 153.792 62.4881 153.793 62.4789 153.781C62.4674 153.771 62.4685 153.754 62.4558 153.745L62.0215 153.428L62.7668 153.055C62.7899 153.043 62.7945 153.016 62.8129 153.002C62.829 152.989 62.8521 152.991 62.8671 152.975L64.2149 151.422L68.2319 147.566L69.9875 147.022L72.1049 147.096L73.3951 147.397L73.9585 147.759L74.0115 148.768L73.6751 148.828L72.7881 148.516C72.7777 148.512 72.7662 148.52 72.7547 148.517C72.7443 148.513 72.7397 148.502 72.7282 148.501L70.999 148.223C70.9598 148.215 70.9241 148.242 70.8884 148.25C70.8515 148.257 70.8135 148.245 70.7824 148.265L69.3781 149.08C69.362 149.091 69.3597 149.11 69.347 149.119C69.3344 149.13 69.3136 149.126 69.3044 149.139L67.0811 151.497C67.0811 151.497 67.0811 151.498 67.0799 151.498C67.0799 151.499 67.0788 151.499 67.0788 151.499L64.6296 154.186L63.5111 155.039ZM64.3175 157.808L63.8233 155.633L65.0536 154.695C65.064 154.688 65.0617 154.673 65.0697 154.665C65.0778 154.658 65.0916 154.662 65.0974 154.653L67.5684 151.943L69.7538 149.626L71.0152 148.892L72.5969 149.145L73.5404 149.476C73.5749 149.489 73.6129 149.496 73.6498 149.496C73.6694 149.496 73.6878 149.495 73.7074 149.491L74.4113 149.367L75.1048 149.264L76.5206 149.19L77.979 149.617L78.9502 150.542C78.9467 150.541 78.9421 150.541 78.9386 150.538C78.9041 150.532 78.8787 150.507 78.8396 150.512L78.8062 150.517L77.3811 150.695C77.3708 150.696 77.3662 150.707 77.3547 150.71C77.3466 150.711 77.3362 150.703 77.327 150.707L75.5368 151.248C75.5218 151.253 75.5172 151.27 75.5022 151.276C75.4873 151.283 75.4688 151.275 75.4573 151.284L73.3422 152.603C73.3353 152.606 73.3353 152.616 73.3307 152.619C73.3238 152.624 73.3157 152.62 73.3088 152.626L70.7756 154.649L69.7123 155.362L68.7596 155.565C68.7412 155.568 68.7342 155.588 68.7181 155.595C68.702 155.599 68.6836 155.591 68.6686 155.599L67.1491 156.452C67.1387 156.459 67.1376 156.471 67.1272 156.478C67.1192 156.485 67.1053 156.482 67.0973 156.489L64.6412 158.533L64.3175 157.808ZM79.2438 153.405L78.6333 154.08L77.3926 155.005L76.0896 155.538L74.1554 155.796C74.1508 155.796 74.1474 155.803 74.1428 155.804C74.1359 155.804 74.1313 155.8 74.1266 155.801L73.1716 156.014C73.1371 156.022 73.1221 156.052 73.0944 156.068C73.0633 156.084 73.0288 156.083 73.0034 156.107L72.2293 156.926C72.2109 156.945 72.2166 156.969 72.204 156.991C72.1913 157.013 72.1659 157.021 72.1579 157.044L71.6959 158.37L68.8056 159.707L66.3184 160.34H65.3864L64.777 159.286L64.7851 159.271L67.4969 157.013L68.9519 156.197L69.8803 156L71.3203 156.013H71.3238C71.3837 156.013 71.4425 155.997 71.4977 155.963L77.2037 152.428L78.3799 152.116L79.1679 152.164L79.419 152.39L79.4616 152.861L79.2438 153.405Z" fill="#2C2E32"/>
<path d="M58.2906 63.7679C58.3217 63.5893 58.1996 63.4177 58.0199 63.3877C57.8448 63.3508 57.6697 63.4787 57.6398 63.6584L57.2815 65.7643C57.278 65.7839 57.2942 65.7988 57.2942 65.8184C57.2942 65.838 57.278 65.853 57.2815 65.8726L57.8229 69.1304C57.8506 69.2917 57.99 69.4058 58.1478 69.4058C58.1662 69.4058 58.1824 69.4046 58.2019 69.4012C58.3805 69.3701 58.5037 69.2019 58.4727 69.021L57.9404 65.8185L58.2906 63.7679Z" fill="#2C2E32"/>
</svg>
