<?xml version="1.0" encoding="utf-8"?>
<!-- Generator: Adobe Illustrator 26.0.1, SVG Export Plug-In . SVG Version: 6.00 Build 0)  -->
<svg version="1.1" id="Vrstva_1" xmlns="http://www.w3.org/2000/svg" xmlns:xlink="http://www.w3.org/1999/xlink" x="0px" y="0px"
	 viewBox="0 0 566.9 566.9" style="enable-background:new 0 0 566.9 566.9;" xml:space="preserve">
<style type="text/css">
	.st0{fill:#F8EBDB;}
	.st1{fill:#EB2F06;}
</style>
<rect y="0" class="st0" width="566.9" height="566.9"/>
<g>
	<rect x="150" y="119.9" class="st1" width="266.8" height="24.5"/>
	<polygon class="st1" points="267.4,224.9 284.4,206.7 310.4,231 326.2,214.1 283.3,173.9 234.6,225.8 378.9,360.9 188,360.9 
		264.6,291.6 249,274.4 150,363.9 157.8,384.1 409.1,384.1 416.9,363.9 	"/>
	<g>
		<path class="st1" d="M151.2,445c-0.1,0-0.1-0.1-0.1-0.1l-0.5-4.7c0-0.1,0.1-0.2,0.1-0.2h0.1c1.1,0.6,5.4,2.8,12.5,2.8
			c4.6,0,7.5-1.2,7.5-2.8c0-1.2-2.5-2.3-8.7-2.3c-11.6,0-12.1-4.8-12.1-6.6c0-5.8,7-7.2,13.1-7.2c5.5,0,9.3,1.6,10,1.9
			c0.1,0,0.1,0.1,0.1,0.1l0.3,4.5c0,0.1-0.1,0.2-0.1,0.2h-0.1c-1.4-0.9-5.5-2.5-10.1-2.5c-7.6,0-8.9,1.8-8.9,3c0,1.7,3,2.4,7.9,2.4
			c4.4,0,13.1,0.5,13.1,6.6c0,1.4-1,6.8-11.9,6.8C156.3,447,151.9,445.3,151.2,445z"/>
		<path class="st1" d="M224.9,446.4l-1.8-3.6c0-0.1-0.1-0.1-0.2-0.1h-13.5c-0.1,0-0.2,0.1-0.2,0.1l-1.8,3.6
			c-0.1,0.1-0.1,0.2-0.2,0.2H203c-0.2,0-0.3-0.2-0.2-0.4l10.8-21.6c0.1-0.1,0.1-0.1,0.2-0.1h4.5c0.1,0,0.2,0.1,0.2,0.1l10.8,21.6
			c0.1,0.2-0.1,0.4-0.2,0.4h-4.2C225,446.5,224.9,446.4,224.9,446.4z M211.6,438.4h9.1c0.1,0,0.2-0.1,0.1-0.2l-4.6-9.2
			c0-0.1-0.1-0.1-0.1,0l-4.6,9.2C211.4,438.3,211.5,438.4,211.6,438.4z"/>
		<path class="st1" d="M276.5,424.4l1.3,3.5c0,0.1,0,0.1-0.1,0.1h-10.6l-0.1,0.1v18.1c0,0.1-0.1,0.2-0.1,0.2H263
			c-0.1,0-0.1-0.1-0.1-0.2v-18.1l-0.1-0.1h-10.6c-0.1,0-0.1,0-0.1-0.1l1.2-3.5c0-0.1,0-0.1,0.1-0.1L276.5,424.4L276.5,424.4z"/>
		<path class="st1" d="M306.4,446.5c-0.2,0-0.3-0.2-0.3-0.3v-21.5c0-0.2,0.1-0.3,0.3-0.3h3.1c0.1,0,0.2,0,0.2,0.1l15.6,15.2h0.1
			c0,0,0.1,0,0.1-0.1v-14.9c0-0.2,0.2-0.3,0.3-0.3h3.6c0.2,0,0.3,0.1,0.3,0.3v21.5c0,0.2-0.2,0.3-0.3,0.3h-2.9c-0.1,0-0.2,0-0.2-0.1
			L310.4,431c-0.1-0.1-0.1,0-0.1,0.1v15.1c0,0.2-0.2,0.3-0.3,0.3H306.4z"/>
		<path class="st1" d="M359,446.5c-0.1,0-0.2-0.1-0.2-0.2v-21.7c0-0.1,0.1-0.2,0.2-0.2h3.8c0.1,0,0.2,0.1,0.2,0.2v21.7
			c0,0.1-0.1,0.2-0.2,0.2H359z"/>
		<path class="st1" d="M405.2,434.6l11.6,11.6c0.1,0.1,0,0.2-0.1,0.2h-5.4c0,0-0.1,0-0.1-0.1l-9-8.9l-0.1-0.1c0,0-0.1,0-0.1,0.1
			l-5.4,5.3v0.1v3.3c0,0.1-0.1,0.2-0.2,0.2h-3.7c-0.1,0-0.2-0.1-0.2-0.2v-21.6c0-0.1,0.1-0.2,0.2-0.2h3.7c0.1,0,0.2,0.1,0.2,0.2v12
			c0,0.1,0.1,0.2,0.1,0.2c0.1,0,0.1,0,0.1-0.1l12.5-12.3h0.1h5.6c0.1,0,0.2,0.2,0.1,0.2l-9.9,9.8
			C405.1,434.4,405.1,434.5,405.2,434.6z"/>
		<path class="st1" d="M171.1,419.8h-16.9l0,0v-3.4l0,0h16.9l0,0V419.8C171.2,419.8,171.2,419.8,171.1,419.8z"/>
		<path class="st1" d="M370.1,419.8h-11.2l0,0v-3.4l0,0h11.2l0,0V419.8L370.1,419.8z"/>
	</g>
</g>
</svg>
