<svg width="18" height="14" viewBox="0 0 18 14" fill="none" xmlns="http://www.w3.org/2000/svg">
<path d="M5.4 4.35793H6.3V0.876537H5.4C4.40494 0.876537 3.6 1.66047 3.6 2.60491C3.6 3.54935 4.40438 4.35793 5.4 4.35793ZM0 11.37C0 12.3389 0.804937 13.1233 1.8 13.1233L2.7 13.1231V9.64165L1.8 9.64164C0.804937 9.61701 0 10.425 0 11.37ZM9.49219 7.86399C8.50781 7.86399 7.34766 8.22336 6.54469 8.71585C5.85 9.21436 5.29594 9.61701 3.6 9.61701V13.1231L5.21719 13.5608C5.95547 13.7594 6.70781 13.9204 7.47787 13.9719C8.39559 14.037 9.32372 13.9923 10.2201 13.8039C13.3003 13.1806 14.4 11.7562 14.4 10.4935C14.4 8.7405 12.0347 7.86399 9.49219 7.86399ZM13.8206 0.198664C12.924 0.0103505 11.9959 -0.0375838 11.0784 0.0274699C10.3078 0.078828 9.55687 0.23975 8.81719 0.43828L7.2 0.876537V4.35793C8.89453 4.35793 9.45 4.78578 10.1475 5.2098C10.9491 5.72666 12.1092 6.06166 13.095 6.06166C15.6347 6.11096 18 5.23445 18 3.48142C18 2.26663 16.9003 0.842298 13.8206 0.198664Z" fill="#957D5E"/>
</svg>
