<svg width="101" height="170" viewBox="0 0 101 170" fill="none" xmlns="http://www.w3.org/2000/svg">
<path d="M80.0371 81.3671L79.112 78.3607C79.1007 78.3234 79.0646 78.3054 79.0421 78.2761C79.0195 78.2456 79.0127 78.2084 78.9823 78.1858L75.9836 76.1901L74.5576 74.0861V74.085L71.4813 69.032C71.5151 69.0049 71.5331 68.9733 71.5546 68.9361C71.5771 68.8989 71.5952 68.8684 71.5997 68.8267C71.6031 68.8109 71.6178 68.8007 71.6178 68.7861C71.6178 68.7556 71.5929 68.7364 71.585 68.7082C71.5771 68.6789 71.5884 68.6518 71.5738 68.6259L71.2421 68.0415L71.1011 67.5147V67.0555H71.488C71.6663 67.0555 71.8118 66.91 71.8118 66.7317V63.5843C71.8118 63.5719 71.8005 63.5651 71.7994 63.5516C71.7983 63.5403 71.8073 63.5302 71.8062 63.5178L71.171 60.4446C71.1699 60.4367 71.1597 60.4333 71.1586 60.4265C71.1575 60.4186 71.1631 60.4119 71.1597 60.404L70.6679 58.9667V57.9683C70.6679 57.9435 70.6464 57.9311 70.6419 57.9074C70.6374 57.8859 70.6498 57.8668 70.6419 57.8464L69.2509 54.4813L67.8858 49.9799L67.1277 47.4777C67.1266 47.4743 67.1232 47.4743 67.1232 47.4709C67.1221 47.4675 67.1243 47.463 67.1232 47.4596L66.0943 44.6325V44.6291L64.3852 39.1317L63.2649 35.5352C63.2582 35.5126 63.2345 35.5059 63.2266 35.4878C63.2187 35.4698 63.2232 35.4472 63.2085 35.4291L62.1052 34.0494H62.1041V34.0483C62.0928 34.0336 62.0736 34.0359 62.0623 34.0235C62.0511 34.0122 62.0499 33.993 62.0353 33.9851L60.3013 32.8062C60.2911 32.7994 60.2787 32.8051 60.2674 32.7994C60.2573 32.7927 60.2562 32.7803 60.2449 32.7746L58.8076 32.1632C58.8065 32.162 58.8065 32.1598 58.8042 32.1598L56.8785 31.3419C56.8683 31.3385 56.8604 31.3453 56.8514 31.3419C56.8435 31.3385 56.8401 31.3295 56.8322 31.3272L55.8552 31.0745L55.8654 31.0644V31.0632C55.9184 31.0102 55.9466 30.9357 55.9523 30.8556C55.9534 30.8478 55.9624 30.8432 55.9624 30.8342V30.1946C55.9624 30.1619 55.9365 30.1415 55.9286 30.1122C55.9207 30.0829 55.932 30.0535 55.9162 30.0265L55.1287 28.728L54.8715 27.4035C54.8681 27.3889 54.8523 27.381 54.8467 27.3674C54.8422 27.355 54.8501 27.337 54.8433 27.3234L54.4293 26.4807C54.4135 26.448 54.3796 26.4401 54.3559 26.4164C54.3334 26.3916 54.3266 26.36 54.2973 26.3419L53.3823 25.823V25.2296C53.3823 25.2172 53.3699 25.2081 53.3677 25.1957C53.3665 25.1833 53.3778 25.1732 53.3744 25.1619L53.1556 24.1522C53.1488 24.1217 53.1217 24.1071 53.1059 24.0811C53.0913 24.0507 53.0946 24.0168 53.0698 23.9909L52.323 23.2406L52.7472 21.8406C52.7585 21.8067 52.737 21.7763 52.737 21.7402C52.737 21.7063 52.7551 21.677 52.7438 21.6432L52.5159 20.9674C52.5046 20.9347 52.4742 20.9257 52.4561 20.8997C52.4336 20.867 52.4291 20.8286 52.3963 20.8038L51.1351 19.9261L50.8 18.5159C50.7932 18.4866 50.7661 18.4742 50.7526 18.4482C50.7413 18.4257 50.7458 18.3986 50.7278 18.3772L49.1134 16.536L49.312 15.6832C49.3154 15.6707 49.3041 15.6583 49.3052 15.6471C49.3063 15.6324 49.321 15.6222 49.321 15.6098L49.3221 14.5618C49.3221 14.5245 49.2928 14.4986 49.2838 14.4648C49.2725 14.432 49.2804 14.3982 49.259 14.3689L47.4054 11.8362C47.3975 11.8249 47.3828 11.826 47.3749 11.817C47.367 11.8068 47.3682 11.7922 47.3591 11.7843L45.0092 9.68931C44.9946 9.6769 44.9731 9.68141 44.9573 9.67013C44.9415 9.65998 44.9359 9.63967 44.9201 9.6329L43.4682 9.02595C43.4456 9.01579 43.4264 9.02933 43.4039 9.02595C43.3813 9.02143 43.3678 9 43.3441 9H40.2045C40.1898 9 40.1796 9.01467 40.1672 9.01579C40.1548 9.01692 40.1424 9.00564 40.1311 9.00903L37.586 9.61598C37.5747 9.61936 37.5702 9.63177 37.559 9.63516C37.5477 9.63967 37.5341 9.63177 37.5251 9.63629L35.6197 10.5174C35.6039 10.5241 35.6016 10.5433 35.5869 10.5512C35.5723 10.5591 35.5542 10.5546 35.5429 10.5659L33.9579 11.931C33.9455 11.9422 33.9477 11.9603 33.9365 11.9716C33.9252 11.9829 33.906 11.984 33.8981 11.9986L32.4732 14.1906C32.4699 14.1974 32.4732 14.203 32.4699 14.2087C32.4665 14.2154 32.4552 14.2188 32.4518 14.2233L31.7332 15.6256C31.723 15.6471 31.7332 15.6663 31.7287 15.6866C31.7208 15.7114 31.6993 15.7238 31.6982 15.7475L31.4985 18.3592C31.4985 18.3637 31.503 18.3671 31.5019 18.3716C31.5019 18.3761 31.4974 18.3795 31.4974 18.384V22.0313L31.2334 24.6249C31.2334 24.6317 31.2379 24.6362 31.2379 24.643C31.2379 24.6498 31.2311 24.6531 31.2311 24.6588V25.647L30.5159 27.5491C30.508 27.5705 30.5204 27.5875 30.517 27.6089C30.5136 27.6281 30.4944 27.6427 30.4944 27.6619V30.2871C30.4944 30.3232 30.5215 30.3469 30.5317 30.3796C30.5441 30.418 30.5509 30.4552 30.5768 30.4868C30.6039 30.5206 30.6411 30.5342 30.6806 30.5545C30.7099 30.5691 30.7246 30.5985 30.7584 30.6041C30.7799 30.6086 30.7968 30.6109 30.8171 30.6109C30.8509 30.6109 30.8735 30.5883 30.904 30.5782L30.3591 31.2596C30.3478 31.272 30.3546 31.29 30.3467 31.3036C30.3365 31.3182 30.3196 31.3216 30.3128 31.3374L29.3054 33.7472C29.2986 33.7618 29.3088 33.7742 29.3054 33.7878C29.302 33.8002 29.2862 33.8092 29.2839 33.8216L28.897 36.3126L26.8652 38.5925C26.8528 38.6072 26.8573 38.6264 26.8471 38.6422C26.8359 38.658 26.8167 38.6614 26.8099 38.6783L25.7732 41.0779C25.7698 41.0858 25.7743 41.0937 25.7732 41.1027C25.7698 41.1106 25.7608 41.1128 25.7574 41.1219L25.0647 43.6467C25.0602 43.6625 25.0726 43.676 25.0715 43.6907C25.0681 43.7065 25.0534 43.7166 25.0534 43.7313V49.4872L25.0117 50.8929L23.7933 54.2941C23.7899 54.302 23.7966 54.3099 23.7944 54.3201C23.791 54.3268 23.7831 54.3302 23.782 54.3381L23.2416 56.9035C23.2382 56.9148 23.2495 56.925 23.2484 56.9374C23.2472 56.9498 23.2337 56.9588 23.2337 56.9712V60.6388L22.9235 64.797C22.9235 64.8015 22.9268 64.8038 22.9268 64.8083C22.9268 64.8128 22.9223 64.8162 22.9223 64.8207V68.4859C22.9223 68.5186 22.9483 68.5378 22.9562 68.5672C22.9641 68.5942 22.9528 68.6224 22.9675 68.6484L23.747 69.9999C23.747 70.001 23.7481 70.001 23.7481 70.0033L23.7493 70.0067C23.7504 70.0101 23.756 70.0078 23.7572 70.0112C23.7978 70.0778 23.8587 70.133 23.9399 70.1567L24.2073 70.2323V75.6925C24.2073 75.7286 24.2366 75.7534 24.2456 75.7884C24.2558 75.8211 24.2468 75.8549 24.2682 75.8843L24.5074 76.2193L24.1261 86.253L23.3341 90.169L22.8422 91.3208L21.8382 93.1349C21.8303 93.1473 21.8382 93.1642 21.8337 93.1755C21.8269 93.1901 21.8111 93.1969 21.8077 93.2093L21.678 93.717C21.6746 93.7317 21.6859 93.7441 21.6847 93.7553C21.6814 93.7711 21.6667 93.7813 21.6667 93.796V94.3183C21.6667 94.3431 21.6881 94.3555 21.6915 94.3769C21.696 94.3984 21.6836 94.4153 21.6915 94.4367L21.863 94.8722V97.4297C21.863 97.4624 21.8889 97.4816 21.8968 97.511C21.9047 97.538 21.8934 97.5662 21.9081 97.5922L22.1698 98.0468C22.1744 98.0547 22.1856 98.0513 22.1924 98.0592C22.1992 98.0705 22.1935 98.0852 22.2037 98.0953L22.8794 98.8907C22.8873 98.9008 22.9043 98.8974 22.9133 98.9065C22.9246 98.9166 22.9234 98.9324 22.9347 98.9403L23.7729 99.5642C23.7831 99.5721 23.7977 99.5687 23.8068 99.5755C23.8169 99.5822 23.8169 99.5947 23.8282 99.6003L25.2564 100.267C25.3004 100.288 25.3489 100.297 25.3941 100.297H26.4421C26.5177 100.297 26.5865 100.264 26.6441 100.213C26.6598 100.198 26.6711 100.187 26.6824 100.172C26.6971 100.154 26.7163 100.143 26.7275 100.124L26.8776 99.8361H26.8843L27.339 99.9997C27.3751 100.012 27.4123 100.019 27.4473 100.019H27.8173C27.8839 100.019 27.9504 99.9974 28.0068 99.9579L28.2054 99.8135C28.2607 99.7729 28.3058 99.7154 28.325 99.6454L28.3882 99.4356L28.4863 99.3972C28.4976 99.3927 28.4987 99.3792 28.5089 99.3747C28.5314 99.3634 28.5506 99.3555 28.5686 99.3408C28.5754 99.3363 28.5833 99.3374 28.5878 99.3329L28.7108 99.2179L28.9466 99.0768C28.9646 99.0667 28.9658 99.0441 28.9804 99.0328C28.9951 99.0216 29.0143 99.0261 29.0256 99.0114L29.1959 98.8162C29.223 98.7858 29.2185 98.7463 29.2298 98.7124C29.2455 98.6752 29.2749 98.6459 29.2749 98.6041V98.2995C29.2749 98.2736 29.2534 98.2589 29.2478 98.2352C29.2433 98.2127 29.2557 98.1912 29.2467 98.1687L29.082 97.7987C29.0741 97.7806 29.0526 97.7772 29.0447 97.7626C29.0549 97.7479 29.0481 97.7321 29.056 97.7174C29.0673 97.6949 29.0899 97.6802 29.0966 97.6531L29.153 97.4027L29.2139 97.1522C29.2218 97.1184 29.2015 97.0891 29.1993 97.0552C29.1982 97.0225 29.2139 96.9943 29.2027 96.9616L29.0199 96.4686C29.0199 96.4674 29.0188 96.4674 29.0165 96.4652C28.994 96.4065 28.9432 96.3682 28.8924 96.3309C28.8744 96.3185 28.8665 96.2948 28.8484 96.2858C28.8484 96.2858 28.8484 96.2847 28.8473 96.2847L27.9369 95.8887L27.2431 95.2614L26.8505 94.4458V93.5106L27.2939 91.7687C27.295 91.7619 27.2905 91.7574 27.2927 91.7529C27.2927 91.7461 27.2995 91.7428 27.3006 91.7371L27.885 87.8868C27.8861 87.8789 27.8782 87.871 27.8782 87.8619C27.8794 87.8518 27.8895 87.8461 27.8895 87.836V86.2769L28.0791 84.2891L28.5224 81.674C28.5236 81.6673 28.5303 81.6639 28.5326 81.6583L28.6059 81.1946L28.6928 80.6824V81.0321C28.6928 81.04 28.7007 81.0445 28.7029 81.0547C28.7029 81.0615 28.695 81.0671 28.6962 81.0761L29.1068 84.1874C29.1079 84.1953 29.117 84.1998 29.1181 84.2066C29.1192 84.2145 29.1136 84.2213 29.1147 84.228L30.834 90.8007L31.9193 96.9806C31.9193 96.984 31.9227 96.9851 31.9238 96.9885C31.9238 96.9919 31.9227 96.993 31.9227 96.9964L32.8444 101.073L33.3396 104.684C33.3407 104.694 33.3498 104.698 33.352 104.706C33.3531 104.714 33.3475 104.721 33.3486 104.729L37.4583 119.242L32.1325 133.906C32.1291 133.914 32.1359 133.922 32.1336 133.932C32.1302 133.94 32.1212 133.943 32.1189 133.953L30.8723 140.055L29.7916 141.786C29.787 141.794 29.7916 141.802 29.7882 141.811C29.7837 141.819 29.7735 141.819 29.7701 141.827C29.7555 141.86 29.7701 141.893 29.7667 141.927C29.7634 141.971 29.7509 142.009 29.7634 142.05C29.7758 142.088 29.8051 142.114 29.8344 142.147C29.857 142.176 29.8638 142.211 29.8942 142.233C29.9021 142.237 29.9134 142.236 29.9213 142.241C29.9281 142.244 29.9281 142.251 29.9337 142.253L34.2387 144.174C34.2578 144.182 34.2759 144.182 34.2951 144.187C34.3018 144.188 34.3052 144.197 34.3131 144.198L36.2332 144.538V147.413C36.2332 147.414 36.2343 147.417 36.2343 147.418C36.2355 147.454 36.2637 147.484 36.2761 147.518C36.2941 147.562 36.3009 147.612 36.3325 147.642C36.3336 147.643 36.3325 147.646 36.3336 147.647L36.7104 148.002C36.7104 148.003 36.7115 148.003 36.7115 148.003L36.7183 148.01C36.7792 148.069 36.8605 148.099 36.9394 148.099H36.9913L37.3456 149.111C37.3704 149.181 37.4189 149.234 37.4764 149.272C37.4776 149.274 37.4776 149.279 37.481 149.28L39.2713 150.373C39.2973 150.389 39.3243 150.388 39.3525 150.396C39.365 150.401 39.3717 150.414 39.3853 150.417L41.9631 150.879C41.9823 150.882 42.0003 150.883 42.0195 150.883C42.0387 150.883 42.0579 150.882 42.0793 150.877L44.2939 150.459C44.3153 150.456 44.3232 150.434 44.3412 150.427C44.3897 150.408 44.4304 150.386 44.4642 150.345C44.4856 150.323 44.498 150.301 44.5116 150.272C44.5217 150.249 44.542 150.238 44.5477 150.213L45.0249 148.174C45.0283 148.161 45.017 148.149 45.0181 148.138C45.0192 148.123 45.0339 148.113 45.0339 148.1V147.052C45.0339 147.025 45.0113 147.01 45.0046 146.985C45.0001 146.959 45.0125 146.935 45.0001 146.909L44.6571 146.214L44.3141 144.719C44.3096 144.7 44.2893 144.693 44.2837 144.677C44.2769 144.662 44.2848 144.644 44.2758 144.628L44.0344 144.225L45.2866 142.595L45.519 143.144C45.5258 143.159 45.5404 143.166 45.5461 143.178C45.5506 143.186 45.5472 143.196 45.5528 143.204L48.5301 147.482L49.8219 150.518V157.782C49.8219 157.808 49.8433 157.823 49.849 157.845C49.8535 157.87 49.8411 157.892 49.8501 157.915L50.2833 158.873C50.3138 158.939 50.3645 158.985 50.4221 159.018C50.4255 159.022 50.4266 159.026 50.43 159.029L51.8187 159.747C51.8413 159.758 51.8638 159.758 51.8864 159.765C51.8966 159.766 51.9011 159.778 51.9112 159.78L53.4591 160.06C53.4782 160.063 53.4963 160.064 53.5155 160.064C53.538 160.064 53.5606 160.061 53.5831 160.056L55.1208 159.725C55.1355 159.721 55.14 159.707 55.1535 159.702C55.1795 159.694 55.2054 159.695 55.2291 159.679L56.549 158.83C56.5592 158.823 56.5569 158.812 56.5671 158.805C56.575 158.797 56.5897 158.801 56.5976 158.793L57.7381 157.715C57.7392 157.714 57.7392 157.712 57.7392 157.711C57.7663 157.684 57.7697 157.643 57.7844 157.61C57.8058 157.569 57.834 157.531 57.8363 157.486C57.8363 157.485 57.8374 157.483 57.8374 157.482V156.068H57.9085C58.0066 156.068 58.0867 156.02 58.1465 155.95C58.151 155.943 58.1612 155.946 58.1657 155.94L58.4816 155.522C58.5041 155.492 58.4974 155.456 58.5086 155.422C58.5199 155.388 58.547 155.363 58.547 155.325V150.79L63.2366 147.831C63.2615 147.815 63.2637 147.787 63.2818 147.766C63.3122 147.734 63.3348 147.71 63.3495 147.669C63.3675 147.629 63.3675 147.591 63.3652 147.547C63.3652 147.52 63.3833 147.499 63.3754 147.472L62.544 144.447C62.5406 144.435 62.5259 144.429 62.5214 144.417C62.5169 144.404 62.5225 144.39 62.5169 144.378L59.7597 139.31C59.7552 139.302 59.745 139.302 59.7405 139.294C59.736 139.287 59.7394 139.278 59.7337 139.271L56.3469 134.725L55.6373 127.515C55.6362 127.503 55.6249 127.497 55.6226 127.485C55.6215 127.475 55.6294 127.467 55.626 127.458L54.3569 122.923C54.3535 122.909 54.3377 122.905 54.332 122.893C54.3275 122.878 54.3354 122.863 54.3275 122.852L52.9625 120.413V117.473L53.795 104.519L54.3501 103.744C54.3625 103.726 54.3546 103.706 54.3625 103.687C54.3749 103.662 54.3963 103.649 54.4031 103.621L54.9288 101.077L55.8268 98.6477C55.8313 98.6364 55.8223 98.6252 55.8257 98.6139C55.8302 98.6015 55.8438 98.5947 55.8449 98.58L56.3672 94.9847L57.8925 90.5544C57.8959 90.5443 57.888 90.5352 57.8913 90.5239C57.8925 90.5138 57.9037 90.5093 57.906 90.498L58.3087 87.9438L59.0409 86.0181C59.0488 85.9967 59.0364 85.9809 59.0398 85.9594C59.0443 85.938 59.0646 85.9256 59.0646 85.903V80.6626C59.0646 80.648 59.0499 80.6378 59.0488 80.6254C59.0477 80.613 59.059 80.6006 59.0556 80.5882L58.4486 78.0487V78.0476L58.0673 76.4952L58.0267 76.282C58.0267 76.2786 58.0233 76.2786 58.0222 76.2752C58.0222 76.2719 58.0233 76.2707 58.0233 76.2673L57.7176 75.0072L57.4277 72.5196L57.8158 71.6329C57.8259 71.6103 57.8124 71.5889 57.8169 71.5652C57.8214 71.5426 57.8428 71.528 57.8428 71.5043V68.8892C57.8428 68.8746 57.8282 68.8644 57.827 68.852C57.8259 68.8396 57.8372 68.8249 57.8338 68.8114L57.4581 67.3234V66.2234L58.5536 66.5483C58.584 66.5585 58.6145 66.563 58.6461 66.563C58.7205 66.563 58.7905 66.5325 58.8469 66.4874C58.8514 66.4829 58.8582 66.4863 58.8627 66.4807L59.6422 65.7823C59.658 65.7677 59.6546 65.7462 59.6682 65.7304C59.6693 65.727 59.6716 65.7225 59.6749 65.7203C59.6941 65.6932 59.7111 65.6729 59.7201 65.6424C59.7268 65.6278 59.7393 65.621 59.7426 65.6086L59.9513 64.6395L60.6192 66.9702C60.6203 66.9781 60.6305 66.9827 60.6339 66.9917C60.635 66.9984 60.6305 67.0041 60.6339 67.0109L61.4586 68.9321C61.471 68.9648 61.4992 68.9806 61.5195 69.0065C61.5296 69.0178 61.5274 69.0336 61.5387 69.0438L62.3182 69.7489C62.3216 69.7522 62.3284 69.75 62.3329 69.7534C62.3893 69.8008 62.4592 69.8323 62.5348 69.8323C62.5653 69.8323 62.5946 69.8278 62.6273 69.8199L63.628 69.5255C63.6426 69.521 63.6472 69.5041 63.6607 69.4995C63.6799 69.4916 63.7013 69.4928 63.7205 69.4804L63.9416 69.3281L64.5339 69.7985L65.4026 71.0023L65.8583 72.2229C65.8843 72.2872 65.926 72.3391 65.9779 72.3764C65.979 72.3764 65.979 72.3775 65.979 72.3775L66.2915 72.5896C66.3468 72.6257 66.41 72.6448 66.4732 72.6448H67.1331L71.7246 78.0239V78.9501C71.7246 78.9749 71.746 78.9873 71.7505 79.0099C71.7539 79.0324 71.7404 79.0539 71.7505 79.0764L72.3597 80.5171C72.3699 80.5419 72.3924 80.5532 72.4071 80.5735C72.415 80.5836 72.4105 80.5994 72.4195 80.6073L73.4337 81.7186L73.9109 83.0881V83.3149L73.6345 83.3939C73.6052 83.4018 73.5962 83.43 73.5702 83.4435C73.5341 83.4661 73.5025 83.4819 73.4766 83.518C73.4506 83.5541 73.4427 83.5857 73.4314 83.6274C73.4236 83.6545 73.3987 83.6725 73.3987 83.703V84.2265C73.3987 84.249 73.4179 84.2626 73.4236 84.2851C73.4314 84.3269 73.4461 84.3596 73.4709 84.3945C73.4935 84.4306 73.5161 84.4543 73.5522 84.4792C73.5713 84.4916 73.577 84.5153 73.5973 84.5243L73.8838 84.6439V85.4844C73.8838 85.5092 73.9053 85.5227 73.9098 85.5453C73.9199 85.587 73.9324 85.6186 73.9549 85.6524C73.9797 85.6897 74.0034 85.7134 74.0418 85.7382C74.0598 85.7506 74.0666 85.7754 74.0869 85.7833L74.5743 85.9785C74.6126 85.9943 74.6532 86.0033 74.6939 86.0033C74.7063 86.0033 74.7209 86.0022 74.7322 85.9999L75.7724 85.8724C75.7758 85.8724 75.7769 85.8679 75.7825 85.8679C75.8006 85.8645 75.8186 85.8645 75.8355 85.8578L77.3236 85.358C77.3484 85.3501 77.3563 85.3241 77.3755 85.314C77.398 85.2993 77.424 85.3038 77.4431 85.2847L78.9616 83.835C78.9729 83.8237 78.9695 83.8057 78.9797 83.7944C78.9876 83.7842 79.0045 83.7876 79.0101 83.7786L79.8721 82.4654C79.8845 82.4462 79.8754 82.4248 79.8833 82.4056C79.8946 82.3797 79.9172 82.3639 79.9217 82.3345L80.0413 81.5031C80.0447 81.4771 80.0255 81.458 80.0232 81.4332C80.0289 81.4117 80.0447 81.3925 80.0368 81.3666L80.0371 81.3671ZM67.4007 54.7314V52.1513L67.6128 51.2939L68.6382 54.6796C68.6394 54.6864 68.6484 54.6898 68.6495 54.6954C68.6507 54.6999 68.6484 54.7055 68.6495 54.7101L70.0247 58.0325V59.0219C70.0247 59.0411 70.0428 59.0546 70.0462 59.0715C70.0496 59.0896 70.036 59.1054 70.0428 59.1245L70.5437 60.59L71.1698 63.6158V66.4057H69.9243L69.6491 66.3877L70.0665 66.153C70.0812 66.1451 70.0823 66.126 70.0958 66.1169C70.1297 66.091 70.1477 66.0605 70.1703 66.0233C70.1928 65.9861 70.2086 65.9556 70.2154 65.9139C70.2165 65.8981 70.2335 65.8868 70.2335 65.8721V64.8275C70.2335 64.8015 70.2109 64.7857 70.2064 64.7609C70.2019 64.7361 70.2143 64.7135 70.203 64.691L69.6243 63.4364L70.0981 62.7155C70.1161 62.6885 70.106 62.6569 70.1161 62.6264C70.1263 62.5937 70.1522 62.5734 70.1522 62.5373V60.9669C70.1522 60.9602 70.1455 60.9556 70.1443 60.9489C70.1432 60.9083 70.1172 60.8778 70.1003 60.8406C70.0812 60.8022 70.0732 60.7593 70.0405 60.7323C70.036 60.7278 70.0372 60.721 70.0326 60.7165L68.4498 59.4293L67.4063 57.7799L67.404 54.7316L67.4007 54.7314ZM64.7597 46.7081C64.7811 46.6934 64.7822 46.6675 64.798 46.6483C64.8093 46.6359 64.8307 46.6404 64.8398 46.6257L65.6926 45.4175L66.5094 47.6636L67.2416 50.0801L66.7599 52.0352C66.7565 52.0499 66.7678 52.0611 66.7666 52.0735C66.7655 52.086 66.7508 52.0984 66.7508 52.1108V54.5047L65.9792 54.7969C65.9521 54.8082 65.9453 54.8341 65.9228 54.8522C65.9002 54.8668 65.8709 54.8646 65.8528 54.886L62.4097 58.7566L61.6346 59.1819L62.1716 54.6084C62.1728 54.6016 62.1671 54.5971 62.1671 54.5904C62.1671 54.5825 62.175 54.5779 62.175 54.5689V48.4543L64.7597 46.7081ZM56.6405 31.9487L58.0213 32.5341L56.8006 33.4062L54.4834 34.5614C54.4676 34.5693 54.4642 34.5885 54.4496 34.5986C54.4338 34.6088 54.4157 34.6054 54.4011 34.6178L53.7377 35.2643L53.4952 35.2789L54.2894 33.3362C54.2961 33.3205 54.2849 33.3035 54.2894 33.2889C54.2939 33.2708 54.3108 33.2595 54.3119 33.2437L54.4879 31.3891L54.6075 31.4928C54.6684 31.5447 54.7429 31.5718 54.8196 31.5718H55.1862L56.6405 31.9487ZM36.4454 24.0853C36.4443 24.0729 36.4556 24.0594 36.4522 24.047L36.3766 23.7514L36.6451 23.8969C36.6936 23.924 36.7466 23.9353 36.8008 23.9353C36.8752 23.9353 36.9429 23.9014 37.0016 23.8507C37.0174 23.8383 37.0287 23.8247 37.0422 23.8101C37.0546 23.7943 37.0749 23.7841 37.0839 23.7661C37.0986 23.7401 37.0851 23.7131 37.0918 23.6848C37.0997 23.6578 37.1245 23.6397 37.1245 23.6104L37.1234 22.5635C37.1234 22.5454 37.1076 22.5364 37.1054 22.5217C37.102 22.5059 37.1155 22.4924 37.1099 22.4777L36.8087 21.4082L36.8098 19.9101L37.2385 17.9302L38.0146 16.0732L38.995 14.9868L40.2484 14.3088H41.161L42.5261 14.7973L43.59 15.8092L44.735 17.4902L46.1486 20.2835C46.1824 20.3534 46.2445 20.3963 46.3099 20.4256C46.3167 20.429 46.3178 20.438 46.3257 20.4414L48.2876 21.1612C48.3248 21.1758 48.3631 21.1826 48.3993 21.1826C48.4771 21.1826 48.5459 21.1488 48.6046 21.0969C48.6238 21.0811 48.6316 21.063 48.6463 21.0416C48.6531 21.0314 48.6621 21.0235 48.6689 21.0123V21.1612L48.5425 21.9362L48.2526 21.9881C48.23 21.9926 48.2199 22.014 48.2007 22.0219C48.1815 22.0298 48.159 22.0208 48.1398 22.0332L47.6919 22.313C47.6806 22.3209 47.6795 22.3356 47.6693 22.3457C47.6355 22.3728 47.6208 22.4055 47.5983 22.4439C47.5768 22.4811 47.5577 22.5116 47.5531 22.5522C47.552 22.5668 47.5385 22.5747 47.5385 22.5883V24.1462L47.2892 26.1532V26.1543L47.2294 26.6654L46.9902 27.146V27.1471C46.9891 27.1482 46.9868 27.1482 46.9868 27.1505L46.5626 28.0305V28.0316L45.8699 29.4079C45.8688 29.4091 45.8699 29.4113 45.8699 29.4124C45.8688 29.4136 45.8666 29.4136 45.8666 29.4158L45.2483 30.729L44.6989 30.9896L44.479 31.0877H43.0124L42.0952 30.8147L40.738 30.1141L39.2398 29.0537L39.0864 28.9454L37.8714 27.4314H37.8703V27.4303L37.8398 27.3829L37.2644 25.9693C37.2633 25.9648 37.2565 25.9648 37.2543 25.9592C37.2351 25.9186 37.1956 25.8983 37.1618 25.8689C37.1313 25.8418 37.1133 25.808 37.0749 25.7933C37.0704 25.7922 37.0681 25.7854 37.0636 25.7832L36.1498 25.4786L35.4628 24.7859L35.5903 24.8502L35.8926 25.2045C35.896 25.2078 35.9028 25.2056 35.905 25.2112C35.9637 25.2755 36.0438 25.3184 36.1397 25.3184C36.2141 25.3184 36.2886 25.2925 36.3495 25.2406C36.3529 25.2372 36.3529 25.2304 36.3563 25.2281C36.389 25.1988 36.3935 25.1571 36.4127 25.1187C36.4285 25.0815 36.4567 25.0488 36.4578 25.0093C36.4578 25.0048 36.4623 25.0014 36.4623 24.9969V24.1248C36.4635 24.1113 36.4488 24.1011 36.4454 24.0853L36.4454 24.0853ZM41.4094 32.1653C41.4399 32.1878 41.4737 32.1878 41.5075 32.1991C41.5256 32.2036 41.5335 32.2239 41.5515 32.2262L42.5849 32.3943C42.603 32.3977 42.6188 32.3988 42.6368 32.3988H44.2106C44.3008 32.3988 44.3809 32.3616 44.4419 32.3006L44.8062 31.9306C44.8175 31.9193 44.813 31.9035 44.822 31.8934C44.8288 31.8832 44.8435 31.8866 44.8491 31.8776L45.068 31.5335L45.6388 31.2639C45.6433 31.2628 45.6456 31.2537 45.6501 31.2526C45.7088 31.2199 45.7595 31.1748 45.7922 31.1082L46.4534 29.6991C46.4534 29.698 46.4545 29.698 46.4545 29.698L47.1494 28.3172V28.316C47.1494 28.316 47.1505 28.316 47.1505 28.3149L47.4709 29.9868L47.0118 31.3677L46.573 32.1089L44.1644 32.5218H42.1721L41.3147 32.1348L40.3715 31.3914L41.4094 32.1653ZM40.6637 30.7991L41.8246 31.397C41.8392 31.4049 41.8539 31.4015 41.8663 31.4083C41.8731 31.4094 41.8742 31.4184 41.881 31.4195L42.8794 31.7174C42.9098 31.7275 42.9403 31.732 42.9719 31.732H44.0921L44.0763 31.7501H42.6594L41.7354 31.6L40.6637 30.7991ZM40.1459 31.212L40.1357 31.2041L40.1132 31.177C40.1177 31.1815 40.1244 31.1804 40.1289 31.1849C40.138 31.1917 40.138 31.2029 40.1459 31.212ZM39.5367 30.4516L38.7989 29.5254L38.8327 29.5513L39.5367 30.4516ZM39.654 31.6384C39.6619 31.6486 39.6766 31.6452 39.6867 31.6542C39.6969 31.6644 39.6946 31.6813 39.7081 31.6903L40.9435 32.6639C40.9559 32.6741 40.9739 32.6718 40.9875 32.6797C40.9976 32.6865 40.9999 32.7011 41.0123 32.7056L41.9701 33.1389C42.0118 33.158 42.0592 33.1682 42.1032 33.1682H44.1948C44.2128 33.1682 44.2309 33.1671 44.2501 33.1637L46.8313 32.7226C46.9249 32.7068 46.9982 32.6481 47.0445 32.5737C47.0456 32.5692 47.0524 32.5703 47.0546 32.5669L47.5883 31.6655C47.5928 31.6553 47.5883 31.6463 47.5928 31.6362C47.5973 31.6238 47.612 31.617 47.6176 31.6023L48.114 30.1075C48.1241 30.0782 48.1061 30.0545 48.1072 30.0252C48.1106 29.9958 48.132 29.9733 48.1253 29.9428L47.6244 27.3357L47.841 26.9025C47.8511 26.8844 47.8398 26.8664 47.8455 26.8494C47.8523 26.828 47.8703 26.8167 47.8726 26.7964L47.8917 26.6295L49.3324 27.1394L50.0758 27.629L50.746 29.8559L51.3913 31.9825V33.4322L50.3127 35.6377L48.6566 36.723L45.8599 37.9154H44.3945L41.969 37.1957L40.182 36.2548L37.99 34.0977L36.529 32.0987V30.649L36.8212 29.0685L37.1834 28.8925H37.4778L39.654 31.6384ZM37.4778 34.5039C37.4823 34.5107 37.4936 34.5084 37.4992 34.5152C37.5071 34.5231 37.5037 34.5366 37.5116 34.5445L39.7521 36.7489C39.7645 36.7613 39.786 36.7591 39.7995 36.7681C39.8119 36.7783 39.8153 36.7974 39.83 36.8042L41.6903 37.7823C41.7027 37.7902 41.7196 37.7868 41.732 37.7936C41.7388 37.7947 41.7399 37.8049 41.7478 37.806L44.2534 38.5494C44.2839 38.5596 44.3144 38.5641 44.346 38.5641H45.9197C45.9615 38.5641 46.0055 38.5562 46.0461 38.537L48.933 37.3062C48.9409 37.3028 48.9432 37.2938 48.9488 37.2904C48.9601 37.2837 48.9736 37.2859 48.9826 37.2792L50.7279 36.1352C50.729 36.1352 50.7313 36.1341 50.7324 36.1318L50.7392 36.1285C50.7426 36.1251 50.7426 36.1206 50.746 36.1172C50.7877 36.0867 50.8283 36.0506 50.8531 36.001L52.0027 33.6477C52.014 33.6228 52.0027 33.5992 52.0072 33.5732C52.014 33.5484 52.0366 33.5326 52.0366 33.5055V31.9351C52.0366 31.9171 52.0208 31.9058 52.0174 31.89C52.0162 31.8742 52.0275 31.8596 52.0219 31.8426L51.4883 30.085H52.0783L53.4727 30.5114L53.8912 30.8691L53.6746 33.1321L52.7281 35.4482L50.579 37.5703L47.8116 38.8304L47.0028 38.9635L45.2643 39.2433L42.2047 38.9635L39.2941 37.9854L37.5488 36.996L37.1946 36.5718L35.9311 35.0579L35.2327 33.7752V33.4198L35.6422 32.6921L36.0687 32.5737L37.4778 34.5039ZM31.5076 28.3217L31.529 28.2777V29.2389C31.529 29.2694 31.5538 29.2874 31.5617 29.3145C31.573 29.3562 31.5832 29.3901 31.6069 29.4239C31.6317 29.4578 31.6633 29.4758 31.7005 29.4984C31.7253 29.5131 31.7343 29.5367 31.7614 29.5458L31.74 29.5604C31.7276 29.5706 31.7276 29.5875 31.7152 29.5977C31.7039 29.6078 31.6847 29.6078 31.6745 29.6202L31.1488 30.2757L31.5076 28.3217ZM29.9191 33.9624L30.8961 31.6283L32.1563 30.0545L33.3939 29.1667C33.4018 29.1599 33.4006 29.1509 33.4085 29.1441C33.4424 29.1148 33.4559 29.0764 33.4751 29.0358C33.4943 28.9997 33.5157 28.9715 33.5191 28.932C33.5202 28.9207 33.5304 28.9162 33.5304 28.9049V27.453L33.7921 27.1405C33.8192 27.1078 33.8135 27.0695 33.8259 27.0334C33.8406 26.9995 33.8677 26.9724 33.8677 26.933C33.8677 26.9284 33.8632 26.9251 33.8609 26.9183C33.8598 26.8765 33.8316 26.8438 33.8135 26.8055C33.7955 26.7682 33.7887 26.7265 33.7583 26.7006C33.7549 26.696 33.7571 26.6893 33.7515 26.6859C33.721 26.6599 33.6815 26.6645 33.6477 26.652C33.6116 26.6396 33.5845 26.6103 33.5439 26.6103H33.0216C33.0182 26.6103 33.0182 26.6137 33.0148 26.6137C32.9731 26.6137 32.9392 26.6441 32.8997 26.6611C32.8625 26.6791 32.8185 26.6825 32.7914 26.7096C32.7903 26.7107 32.7869 26.7107 32.7847 26.713L32.1766 27.3616V26.7976C32.1766 26.775 32.1574 26.7637 32.1518 26.7423C32.145 26.7017 32.1303 26.6712 32.1078 26.6351C32.0829 26.5979 32.0626 26.5708 32.0254 26.5449C32.0073 26.5336 32.004 26.511 31.987 26.5043C31.9645 26.493 31.9419 26.5054 31.9171 26.5009C31.8923 26.4964 31.8787 26.4738 31.8528 26.4738C31.8314 26.4738 31.8189 26.493 31.7998 26.4964C31.7592 26.5043 31.7287 26.5189 31.6926 26.5415C31.6554 26.5663 31.626 26.5866 31.6001 26.6238C31.5888 26.6419 31.5662 26.6453 31.5595 26.6622L31.4636 26.8709L31.8584 25.8195C31.8663 25.7981 31.8539 25.7811 31.8573 25.7597C31.8607 25.7405 31.8799 25.7259 31.8799 25.7067V24.6767L32.1439 22.0831C32.1439 22.0763 32.1394 22.0718 32.1394 22.065C32.1394 22.0582 32.1461 22.0548 32.1461 22.0492L32.1472 18.3883L32.3402 15.8635L33.0216 14.5391L34.416 12.3933L35.9311 11.0903L37.7654 10.2397L40.235 9.65079H43.2752L44.6188 10.2115L46.9022 12.2478L48.6734 14.6654V15.5747L48.4455 16.5494C48.4444 16.5596 48.4523 16.5675 48.45 16.5765C48.4421 16.6205 48.4579 16.6577 48.4692 16.6995C48.4805 16.7378 48.4839 16.7784 48.5064 16.8111C48.5132 16.819 48.5098 16.8292 48.5166 16.8371L50.1885 18.7425L50.5281 20.1776V20.1787L50.5326 20.1967C50.5506 20.2746 50.5958 20.3355 50.6556 20.3795C50.6567 20.3806 50.6567 20.3863 50.6601 20.3874L51.9326 21.282L52.0928 21.757L51.6427 23.245C51.6382 23.2608 51.6494 23.2755 51.6472 23.2924C51.6404 23.3341 51.6483 23.3702 51.6585 23.4108C51.6698 23.4526 51.6799 23.4864 51.7036 23.5203C51.7138 23.5349 51.7104 23.5541 51.7228 23.5654L52.5407 24.3867L52.7302 25.2644V26.0146C52.7302 26.0304 52.746 26.0417 52.7483 26.0564C52.755 26.097 52.7731 26.1275 52.7923 26.1636C52.8148 26.2008 52.8329 26.2335 52.8678 26.2606C52.8803 26.2707 52.8803 26.2877 52.8949 26.2944L53.8877 26.8585L54.2385 27.5737L54.4991 28.9117C54.5036 28.9343 54.5251 28.9456 54.533 28.967C54.5397 28.9851 54.5319 29.0009 54.5409 29.0166L55.3125 30.2881V30.701L55.0892 30.9221H54.9369L54.4337 30.4855H54.4326V30.4844L53.8358 29.9744C53.8166 29.9587 53.794 29.9643 53.7715 29.953C53.7523 29.9417 53.7421 29.9169 53.7218 29.9113L52.2146 29.4521C52.1988 29.4476 52.1819 29.46 52.1661 29.4566C52.1503 29.4533 52.1368 29.4375 52.121 29.4375H51.2862L50.651 27.3289C50.6386 27.2906 50.6025 27.2692 50.5777 27.2387C50.5551 27.2094 50.5506 27.1721 50.519 27.1518L49.647 26.5776C49.6346 26.5697 49.6176 26.5765 49.6064 26.5697C49.5951 26.5629 49.5906 26.5471 49.5759 26.5426L47.9604 25.9706L48.1815 24.1949C48.1826 24.1882 48.1747 24.1825 48.177 24.1758C48.177 24.1679 48.1849 24.1634 48.1849 24.1543V22.7633L48.4263 22.611L48.8809 22.5298C48.9069 22.5253 48.917 22.5005 48.9396 22.4926C48.9847 22.4734 49.0242 22.4553 49.0558 22.4181C49.0784 22.391 49.0896 22.3662 49.1009 22.3335C49.1133 22.3076 49.137 22.2918 49.1415 22.2624L49.3096 21.2302C49.3108 21.22 49.3029 21.2121 49.3029 21.2042C49.304 21.1929 49.3141 21.1862 49.3141 21.1772V20.8037L49.6007 20.5623C49.6041 20.5589 49.6041 20.5544 49.6075 20.551C49.6413 20.5183 49.6481 20.4766 49.6673 20.4348C49.6831 20.3987 49.7079 20.3705 49.709 20.331C49.7101 20.3243 49.7158 20.3209 49.7158 20.3164L49.7192 19.7963C49.7192 19.7861 49.709 19.7805 49.7079 19.7703C49.7079 19.7624 49.7158 19.7545 49.7146 19.7455L49.665 19.4184C49.6616 19.3969 49.6391 19.3856 49.6323 19.3665C49.6244 19.345 49.6357 19.3247 49.6221 19.3033L49.0885 18.4008C49.0772 18.3827 49.0547 18.3816 49.0434 18.3669C49.0287 18.3511 49.031 18.3297 49.014 18.315L48.6034 17.98C48.5729 17.954 48.5357 17.9608 48.5019 17.9472C48.468 17.9348 48.4409 17.9066 48.4015 17.9066C48.3947 17.9066 48.3913 17.9134 48.3857 17.9134C48.3473 17.9168 48.3157 17.9427 48.2819 17.9574C48.2401 17.9766 48.1961 17.9845 48.1668 18.0183C48.1623 18.0228 48.1555 18.0217 48.151 18.0262C48.1262 18.0567 48.1318 18.0939 48.1205 18.1277C48.1059 18.1616 48.0788 18.1887 48.0788 18.2281V20.3908L46.672 19.8752L45.3081 17.1812C45.3047 17.1733 45.2956 17.1733 45.29 17.1654C45.2855 17.1587 45.29 17.1508 45.2855 17.144L44.1066 15.4145C44.0987 15.4033 44.084 15.4044 44.0761 15.3954C44.0682 15.3852 44.0716 15.3705 44.0615 15.3615L42.9209 14.2762C42.9028 14.2582 42.8792 14.2638 42.86 14.2514C42.8385 14.2368 42.8306 14.2131 42.8081 14.204L41.3268 13.6749C41.3077 13.6682 41.2907 13.6817 41.2704 13.6783C41.2512 13.6749 41.2377 13.6558 41.2185 13.6558L40.1705 13.6592C40.1411 13.6592 40.1231 13.684 40.096 13.6919C40.0689 13.6986 40.043 13.6851 40.017 13.6998L38.6385 14.4443C38.6204 14.4545 38.617 14.4771 38.6046 14.4861C38.5888 14.4985 38.5674 14.4962 38.5527 14.512L37.4979 15.6808C37.4855 15.6955 37.49 15.7146 37.4787 15.7304C37.4686 15.7485 37.446 15.753 37.4404 15.771L36.6315 17.7036C36.627 17.7148 36.6349 17.7261 36.6315 17.7374C36.6281 17.7476 36.6157 17.7498 36.6134 17.7622L36.1723 19.8098C36.169 19.8222 36.1802 19.8324 36.1791 19.8437C36.178 19.8549 36.1644 19.8651 36.1644 19.8775V21.4479C36.1644 21.4659 36.1802 21.475 36.1825 21.4896C36.1859 21.5054 36.1723 21.519 36.178 21.5336L36.4792 22.6031V23.0656L36.0471 22.8299C36.0471 22.8299 36.046 22.8299 36.0437 22.8287L36.037 22.8254C36.0009 22.8039 35.9625 22.8175 35.9253 22.8129C35.8835 22.8062 35.8441 22.7836 35.8023 22.7971C35.8012 22.7971 35.8012 22.7983 35.7989 22.7983C35.7493 22.8129 35.7143 22.8547 35.6771 22.8908C35.6523 22.9133 35.6207 22.9235 35.6038 22.9506C35.6026 22.954 35.5993 22.954 35.597 22.9551C35.5722 22.9968 35.5857 23.0453 35.5823 23.0905C35.5789 23.1243 35.5575 23.1548 35.5677 23.1909L35.571 23.201V23.2022L35.8147 24.1645V24.2434L35.0115 23.8373C34.9867 23.8249 34.9619 23.8373 34.9359 23.8305C34.91 23.8238 34.8942 23.8012 34.866 23.8012C34.8468 23.8012 34.8355 23.8193 34.8186 23.8204C34.7746 23.8283 34.743 23.8452 34.7058 23.8678C34.6719 23.8903 34.6426 23.9095 34.6166 23.9456C34.6054 23.9603 34.5839 23.9637 34.5783 23.9795C34.5659 24.0043 34.5783 24.028 34.5738 24.0539C34.5659 24.081 34.5433 24.0979 34.5433 24.125V24.6462C34.5433 24.7364 34.5806 24.8165 34.6403 24.8763L35.7482 25.991C35.7673 26.0124 35.7956 26.0068 35.8192 26.0214C35.8418 26.0361 35.8497 26.062 35.8757 26.0699L36.7218 26.3497L37.2588 27.6674C37.2667 27.6888 37.2859 27.6978 37.296 27.7148C37.2994 27.7193 37.2971 27.7249 37.3005 27.7294V28.245H37.0997C37.0726 28.245 37.0557 28.2676 37.0298 28.2743C37.0038 28.2811 36.9812 28.2676 36.9564 28.2789L36.3822 28.5598C36.3754 28.5631 36.3754 28.571 36.3698 28.5756C36.3314 28.5981 36.3134 28.632 36.284 28.6714C36.2581 28.7053 36.231 28.7312 36.2197 28.7719C36.2186 28.7798 36.2085 28.7843 36.2073 28.7933L35.879 30.569C35.8779 30.5803 35.8858 30.5882 35.8858 30.5983C35.8847 30.6096 35.8734 30.6175 35.8734 30.6288V31.96L35.3375 32.1067C35.2518 32.1315 35.1818 32.1879 35.1424 32.259C35.1424 32.259 35.1412 32.259 35.1412 32.2601L34.6268 33.1773C34.6121 33.2032 34.6234 33.2326 34.6167 33.2596C34.6088 33.2867 34.5839 33.3048 34.5839 33.3352V33.6376L31.3698 34.8909C31.3619 34.8943 31.3597 34.9033 31.3518 34.9067C31.345 34.9112 31.336 34.9056 31.3292 34.9101L29.6246 35.8566L29.9191 33.9624ZM32.189 29.2367L32.5703 27.8851L32.8794 27.5557V28.7414L32.189 29.2367ZM48.7255 20.5306V19.0539L49.0357 19.5796L49.0718 19.8154V20.173L48.7852 20.4144C48.7819 20.4178 48.7819 20.4223 48.7785 20.4257C48.7503 20.4528 48.7435 20.4923 48.7254 20.5306L48.7255 20.5306ZM27.5456 96.4C27.5602 96.4124 27.5794 96.4101 27.5975 96.4214C27.6121 96.4316 27.6155 96.4508 27.6313 96.4575L28.4639 96.8197L28.5316 97.0036H28.3646L27.5298 96.7136L26.7491 96.101C26.7265 96.083 26.6995 96.0898 26.6735 96.0785C26.6363 96.0604 26.6036 96.048 26.5618 96.0458C26.5178 96.0446 26.4829 96.0559 26.44 96.0728C26.4152 96.0807 26.3915 96.0728 26.3689 96.0875C26.3531 96.0976 26.3542 96.118 26.3418 96.1292C26.3351 96.1338 26.326 96.1338 26.3193 96.1405L26.2493 95.3463L26.3103 94.8082L26.6904 95.5922C26.7028 95.6193 26.7277 95.634 26.7468 95.6554C26.757 95.6667 26.7536 95.6825 26.7649 95.6915L27.5456 96.4ZM27.9934 80.9217C27.9934 80.9228 27.9923 80.9228 27.9923 80.9251L27.9777 81.012L27.4395 84.1911C27.4395 84.1957 27.4429 84.199 27.4429 84.2036C27.4418 84.2081 27.4361 84.2103 27.4361 84.2148L27.2432 86.2297C27.2432 86.2365 27.2477 86.2399 27.2477 86.2444C27.2477 86.2512 27.241 86.2545 27.241 86.2602V87.8159L26.6656 91.6177L26.2143 93.3889C26.211 93.4036 26.2222 93.416 26.2211 93.4273C26.2177 93.4431 26.2031 93.4532 26.2031 93.4679V93.495C26.176 93.4837 26.1613 93.4589 26.132 93.4566C25.965 93.46 25.7958 93.566 25.7744 93.7443L25.604 95.3079C25.6029 95.3203 25.6142 95.3294 25.6142 95.3418C25.6142 95.3531 25.6029 95.3609 25.604 95.3722L25.7416 96.9246V97.8677L25.6142 98.0753H25.3897L25.1685 97.8598L25.0535 97.4864V96.488C25.0535 96.4778 25.0433 96.4722 25.0422 96.462C25.0422 96.4519 25.0501 96.4462 25.049 96.4372L24.8955 95.4377V93.4228C24.8955 93.2445 24.75 93.099 24.5718 93.099C24.3935 93.099 24.248 93.2445 24.248 93.4228V95.4557C24.248 95.4659 24.2581 95.4715 24.2593 95.4817C24.2593 95.4896 24.2514 95.4963 24.2525 95.5065L24.4059 96.506V97.536C24.4059 97.5541 24.4217 97.5653 24.4251 97.5811C24.4262 97.5992 24.4149 97.6139 24.4206 97.6296L24.5763 98.1306C24.5875 98.1667 24.6169 98.187 24.6372 98.2174C24.6485 98.2332 24.6451 98.2535 24.6598 98.2671L25.032 98.6314C25.0952 98.6912 25.1765 98.724 25.2588 98.724H25.7958C25.9007 98.724 25.9831 98.6653 26.0418 98.5863C26.0496 98.5762 26.0643 98.5796 26.0711 98.5705L26.343 98.1317C26.361 98.1046 26.3497 98.073 26.3576 98.0448C26.3678 98.0144 26.3915 97.9952 26.3915 97.9602L26.3903 96.911C26.3903 96.9043 26.3836 96.9009 26.3836 96.8964C26.3836 96.8919 26.3881 96.8862 26.3881 96.8817L26.3667 96.6572L26.8743 97.4029C26.8856 97.4187 26.9082 97.4142 26.9194 97.4288C26.9386 97.4503 26.9443 97.4807 26.968 97.4965L27.5377 97.8519C27.5557 97.8632 27.5749 97.8621 27.593 97.8677C27.6031 97.8711 27.6054 97.8835 27.6178 97.8869L28.3071 98.0922C28.3398 98.1024 28.3703 98.1069 28.4007 98.1069H28.5056L28.5203 98.1193L28.6286 98.363V98.4792L28.5699 98.5457L28.4729 98.6021L27.3233 98.2028C27.3008 98.1949 27.2816 98.2095 27.259 98.2062C27.2173 98.1994 27.1812 98.2016 27.1406 98.2129C27.0966 98.2242 27.065 98.24 27.0311 98.2659C27.0131 98.2806 26.9905 98.2772 26.9758 98.2953C26.9601 98.3133 26.9657 98.3359 26.9544 98.3551C26.9431 98.3742 26.9206 98.381 26.9138 98.4025C26.907 98.4239 26.9206 98.4442 26.9172 98.4668C26.9104 98.5085 26.9127 98.5446 26.9251 98.5863C26.9352 98.627 26.951 98.6574 26.9747 98.6901C26.9894 98.7093 26.9871 98.7341 27.0052 98.7499L27.3967 99.0906C27.4158 99.1087 27.4418 99.1053 27.4644 99.1166C27.4835 99.1278 27.4903 99.1504 27.5095 99.1549L27.7678 99.2395L27.7362 99.3524L27.7103 99.3704H27.5004L27.0458 99.2068C27.0266 99.2001 27.0097 99.2136 26.9894 99.2102C26.9702 99.2057 26.9567 99.1876 26.9375 99.1876H26.6792C26.66 99.1876 26.6464 99.2057 26.6307 99.2091C26.59 99.2158 26.5596 99.2339 26.5235 99.2531C26.4874 99.2756 26.4569 99.2937 26.431 99.3287C26.4197 99.3433 26.4005 99.3467 26.3926 99.3625L26.2426 99.6502H25.4642L24.125 99.024L23.3523 98.4498L22.7115 97.6951L22.5106 97.3487V94.8172C22.5106 94.7924 22.4892 94.78 22.4858 94.7585C22.4813 94.7371 22.4937 94.7202 22.4858 94.6987L22.3144 94.2633L22.3155 93.838L22.4238 93.4115L23.4132 91.6223C23.4166 91.6177 23.4132 91.611 23.4143 91.6065C23.4177 91.602 23.4245 91.5986 23.4267 91.5918L23.9411 90.3858C23.9456 90.3756 23.9377 90.3666 23.9411 90.3565C23.9456 90.3441 23.9592 90.3373 23.9626 90.3226L24.7647 86.355C24.7658 86.3448 24.7579 86.3369 24.7602 86.3279C24.7613 86.3178 24.7714 86.3121 24.7714 86.302L25.1381 76.8548C25.1415 76.8548 25.1426 76.8582 25.146 76.8582H28.4707C28.4707 76.8594 28.4718 76.8594 28.4718 76.8616C28.4718 76.8763 28.4594 76.8876 28.4606 76.9C28.4651 76.9338 28.4933 76.9564 28.5057 76.9891C28.5215 77.0218 28.5282 77.0489 28.5531 77.0748C28.5779 77.1008 28.6027 77.1121 28.6354 77.1278L27.9934 80.9217ZM28.8542 73.3914L28.6749 74.9257L28.6275 75.3205C28.6275 75.3216 28.6263 75.3216 28.6263 75.3239L28.5305 76.2118H25.3117L25.1064 75.9252V75.9218L24.8627 75.5811V70.4175L25.9593 70.747C25.9751 70.7515 25.992 70.7515 26.0067 70.7549C26.01 70.7549 26.0112 70.7594 26.0168 70.7594L28.8564 71.0764L28.8552 73.3913L28.8542 73.3914ZM28.9964 38.6798C28.9851 38.6843 28.984 38.6989 28.9738 38.7057C28.9637 38.7102 28.9524 38.7057 28.9434 38.7125L28.5169 39.0182C28.5022 39.0295 28.5022 39.0487 28.491 39.06C28.4763 39.0712 28.4571 39.0712 28.447 39.0859L27.2466 40.6777C27.2353 40.6935 27.2421 40.7116 27.2342 40.7296C27.2241 40.7454 27.2049 40.751 27.2004 40.7668L26.0248 44.2403C26.0215 44.2505 26.0282 44.2584 26.026 44.2663C26.0248 44.2764 26.0147 44.2787 26.0136 44.2877L25.7078 45.9517V43.7732L26.3836 41.3071L27.3876 38.9809L29.4104 36.7099L31.6193 35.4825L34.7566 34.2562L35.3726 35.3866C35.3794 35.399 35.394 35.4058 35.403 35.417C35.4076 35.4238 35.4042 35.4328 35.4098 35.4396L36.3236 36.535L33.9951 36.8712C33.985 36.8724 33.9805 36.8825 33.9726 36.8859C33.9647 36.887 33.9568 36.8814 33.9477 36.8825L30.9343 37.7772C30.9264 37.7783 30.9231 37.7884 30.9152 37.7918C30.9073 37.7952 30.8971 37.7884 30.8881 37.7929L28.9964 38.6798ZM32.7451 72.9351L36.3156 73.4134L36.7905 73.5352V74.5765L33.6847 73.9752C33.6734 73.9718 33.6633 73.9831 33.652 73.982C33.6407 73.9809 33.6328 73.9696 33.6215 73.9696H31.5209C31.5051 73.9696 31.495 73.9843 31.4826 73.9876C31.4668 73.9888 31.4532 73.9764 31.4386 73.9809L29.3684 74.5337L29.4722 73.6469L30.7256 73.2318L32.7451 72.9351ZM29.2433 75.6268L31.9058 75.0684H33.4209L35.3128 75.4497C35.3173 75.4508 35.3207 75.4497 35.3252 75.4508L36.7906 75.6866V76.4853L34.5614 76.201C34.5535 76.1999 34.549 76.2078 34.54 76.2056C34.5321 76.2056 34.5276 76.1977 34.5185 76.1977L31.9057 76.1999C31.899 76.1999 31.8945 76.2067 31.8877 76.2078C31.8809 76.2067 31.8775 76.201 31.8696 76.201L29.1474 76.4921L29.2433 75.6268ZM44.3909 147.592V148.069L43.9701 149.862L42.0241 150.229L39.5624 149.789L37.921 148.789L37.5295 147.669V147.666L37.2802 146.973V145.484L37.4144 144.745L37.5227 144.764V145.887C37.5227 145.923 37.5498 145.947 37.56 145.981C37.5712 146.013 37.5634 146.048 37.5848 146.078L38.5065 147.35C38.5178 147.365 38.5392 147.36 38.5482 147.373C38.59 147.417 38.634 147.463 38.6971 147.476L40.7346 147.932C40.7594 147.937 40.782 147.94 40.8056 147.94H43.4342C43.4726 147.94 43.5132 147.932 43.5504 147.918L44.3909 147.592ZM43.9938 147.051L43.3756 147.29H40.844L38.96 146.868L38.1726 145.78V144.876L39.4733 145.111C39.4925 145.114 39.5105 145.115 39.5297 145.115H43.1918C43.2899 145.115 43.37 145.068 43.4298 144.999C43.4332 144.995 43.4411 144.996 43.4456 144.991L43.4671 144.964L43.7175 146.316C43.7186 146.327 43.7299 146.334 43.7333 146.345C43.7367 146.355 43.7288 146.366 43.7333 146.375L43.9938 147.051ZM43.3948 144.004L43.3835 144.019L43.0326 144.469H39.5592L37.9064 144.171L37.2115 144.048H37.2104L36.6181 143.944L34.4667 143.564L30.5395 141.812L31.4544 140.345C31.4646 140.33 31.4556 140.312 31.4623 140.297C31.4725 140.275 31.4928 140.263 31.4962 140.24L32.7484 134.108L37.7586 120.304L41.6237 133.952C41.6249 133.96 41.635 133.965 41.6384 133.974C41.6395 133.981 41.635 133.985 41.6384 133.992L45.0036 141.91L43.3948 144.004ZM57.1977 157.335L56.1767 158.299L54.9335 159.1L53.5188 159.404L52.0781 159.144L50.8326 158.502L50.4739 157.711V156.503H52.0364C52.0465 156.503 52.0556 156.503 52.0657 156.502L55.7243 156.185C55.7254 156.185 55.7277 156.181 55.7288 156.181C55.7469 156.18 55.7627 156.178 55.7807 156.174L57.1582 155.798L57.165 155.822V155.824L57.1988 155.95L57.1977 157.335ZM56.5614 153.175C56.5648 153.194 56.5512 153.211 56.558 153.23L56.8863 154.171V155.196L55.6329 155.54L52.0286 155.853H50.7346L50.4763 154.603V152.032L51.1916 153.704C51.2434 153.827 51.3619 153.901 51.4894 153.901C51.5311 153.901 51.5751 153.893 51.6168 153.874C51.6168 153.874 51.6168 153.873 51.618 153.873L56.5413 151.776V153.123C56.5401 153.144 56.5604 153.157 56.5616 153.175L56.5614 153.175ZM57.9084 155.212L57.755 155.414H57.7211L57.535 154.736V154.117C57.535 154.095 57.5158 154.083 57.5124 154.065C57.5091 154.047 57.5226 154.029 57.5158 154.01L57.1875 153.069V151.499L57.8802 151.2C57.887 151.197 57.8881 151.189 57.8949 151.186C57.8994 151.185 57.905 151.185 57.9095 151.181L57.9084 155.212ZM58.4263 80.7002V85.8479L57.7031 87.7477C57.6986 87.7589 57.7065 87.7702 57.7042 87.7815C57.6997 87.7939 57.6862 87.8007 57.6851 87.8142L57.2823 90.3661L55.7559 94.8018C55.7525 94.8131 55.7604 94.8233 55.757 94.8357C55.7559 94.8458 55.7424 94.8515 55.7413 94.8628L55.2189 98.4593L54.3243 100.88C54.3209 100.888 54.3277 100.898 54.3254 100.906C54.322 100.916 54.3107 100.919 54.3096 100.929L53.794 103.425L53.2266 104.22C53.2085 104.246 53.2164 104.276 53.2074 104.304C53.1961 104.335 53.1702 104.354 53.1691 104.389L52.3286 117.456C52.3286 117.46 52.332 117.463 52.332 117.466C52.332 117.471 52.3274 117.473 52.3274 117.478V119.269L52.2902 119.203L52.2891 119.199L51.0425 116.973L50.4017 110.782C50.4006 110.771 50.3893 110.766 50.387 110.756C50.3859 110.746 50.3938 110.738 50.3904 110.729L49.2905 106.741V103.108C49.2905 103.086 49.2713 103.074 49.2679 103.053C49.2634 103.034 49.2758 103.016 49.269 102.996L47.8205 99.0941L46.6348 92.9852V87.2565C46.6348 87.2204 46.6077 87.1967 46.5976 87.164C46.5874 87.1313 46.5964 87.0963 46.575 87.067L44.1359 83.6622C44.0344 83.5167 43.8313 83.4874 43.6847 83.5866C43.5391 83.6904 43.5064 83.8924 43.6091 84.0379L45.9884 87.3603V93.0123C45.9884 93.0235 45.9996 93.0314 46.0008 93.0427C46.0019 93.054 45.9929 93.0642 45.994 93.0754L47.191 99.242C47.1921 99.2533 47.2034 99.2578 47.2068 99.268C47.2079 99.2759 47.2022 99.286 47.2056 99.2939L48.6452 103.167V106.782C48.6452 106.8 48.6609 106.809 48.6632 106.823C48.6666 106.839 48.653 106.853 48.6587 106.865L49.762 110.866L50.4073 117.104C50.4107 117.13 50.4321 117.142 50.44 117.167C50.4479 117.189 50.4367 117.209 50.4479 117.228L51.7273 119.511C51.7273 119.511 51.7284 119.511 51.7284 119.513L52.3703 120.653V120.654L53.7579 123.135L55.0079 127.597L55.7232 134.855V140.595C55.7232 140.774 55.8687 140.919 56.047 140.919C56.2252 140.919 56.3708 140.774 56.3708 140.595V135.814L59.2103 139.626L61.9438 144.651L62.7008 147.404L58.0608 150.332L57.6084 150.612L56.7386 150.986C56.7386 150.986 56.7386 150.987 56.7375 150.987L51.6609 153.149L50.4515 150.319C50.4515 150.319 50.4504 150.319 50.4504 150.318L49.1191 147.188C49.1146 147.177 49.1 147.176 49.0943 147.163C49.0876 147.152 49.0943 147.139 49.0864 147.129L46.1137 142.858L45.6749 141.823C45.6749 141.822 45.6738 141.822 45.6715 141.819L42.2443 133.755L38.1085 119.153L33.976 104.561L33.483 100.957C33.4819 100.952 33.4763 100.949 33.4751 100.945C33.4751 100.94 33.4796 100.934 33.4785 100.93L32.5546 96.8505L31.4693 90.6707C31.4682 90.6662 31.4625 90.6628 31.4614 90.6582C31.4603 90.6537 31.4648 90.6481 31.4625 90.6436L29.7432 84.0721L29.3394 81.0035V77.1217L31.9273 76.8453H34.5074L37.0277 77.1657L37.9291 77.591C37.9483 77.6012 37.9674 77.6012 37.9889 77.6057C37.9968 77.6068 38.0013 77.617 38.0103 77.6181L43.1568 78.533L45.6602 79.2573C45.6907 79.2652 45.72 79.2697 45.7505 79.2697H56.2185C56.2603 79.2697 56.3043 79.2618 56.346 79.2426L57.9232 78.5669L58.4263 80.7002ZM37.4381 76.6523V73.6986L37.7394 73.772V76.7909L37.4381 76.6523ZM44.6649 77.3167C44.6751 77.3179 44.6841 77.3179 44.692 77.3201C44.6954 77.3201 44.6965 77.3235 44.6988 77.3235L47.8271 77.6405H47.8429L47.844 77.6417L51.5061 77.8165H51.5219C51.5287 77.8165 51.5343 77.8165 51.5399 77.8154L54.3265 77.6586V78.6277H45.7954L43.3191 77.9113C43.3124 77.9102 43.3079 77.9147 43.3011 77.9124C43.2943 77.9113 43.2909 77.9045 43.2853 77.9023L38.3915 77.0302V75.9935L44.6649 77.3167ZM38.3857 74.8326V73.9334L44.4145 75.4553C44.4224 75.4564 44.4303 75.4564 44.4394 75.4587C44.4405 75.4587 44.4405 75.4598 44.4427 75.4598L49.0951 76.2123C49.1132 76.2157 49.129 76.2168 49.147 76.2168H53.3425C53.3549 76.2168 53.3696 76.2157 53.3808 76.2134L54.3217 76.0972V76.6037L50.9721 76.8203L47.3496 76.5857L43.7575 76.025L38.3857 74.8326ZM54.9695 78.6289V76.0195L55.3711 75.971V78.6289L54.9695 78.6289ZM57.5349 77.0078L57.7651 77.934L56.1496 78.6278H56.0198V77.6023L57.5349 77.0078ZM56.0198 76.4809V75.8886L56.5004 75.8255C56.5083 75.8243 56.5117 75.8153 56.5185 75.8153C56.5444 75.8108 56.5681 75.8085 56.5941 75.7972L57.1875 75.522L57.3296 76.112L56.0198 76.4809ZM58.5706 65.8762L57.4559 65.5468L57.4221 64.7932C57.421 64.7628 57.3928 64.7447 57.3849 64.7176C57.3691 64.6702 57.3555 64.6274 57.3217 64.5935C57.2957 64.5665 57.2687 64.5597 57.2371 64.5439C57.2032 64.5258 57.1818 64.4954 57.1434 64.4886L55.8788 64.3059H58.1057L58.8108 64.7673L59.0534 65.4464L58.5706 65.8762ZM59.7461 43.8051C59.7382 43.8164 59.745 43.831 59.7382 43.8423C59.7314 43.8536 59.7156 43.8581 59.7111 43.8728L57.0329 51.2509C57.0295 51.2611 57.0363 51.2701 57.034 51.2802C57.0306 51.2904 57.0216 51.2927 57.0194 51.3028L56.5467 53.7825L48.4613 62.5301L46.7792 63.5342H43.7805L35.3139 60.9225C35.3037 60.9191 35.2947 60.927 35.2845 60.9259C35.2744 60.9225 35.2699 60.9135 35.2597 60.9112L31.6419 60.434L32.4665 59.2743L36.4714 58.6143C36.4895 58.6109 36.4974 58.5929 36.512 58.5884C36.5447 58.5782 36.5763 58.5782 36.6057 58.5579L39.1711 56.7461C39.1824 56.7382 39.1812 56.7236 39.1902 56.7157C39.2004 56.7078 39.2151 56.7111 39.2241 56.701L49.1564 45.9147L58.0011 37.7955L61.8087 34.7067L62.6673 35.7818L63.7119 39.1325L61.2402 41.5648C61.23 41.575 61.2334 41.5874 61.2255 41.5987C61.2176 41.6088 61.2041 41.6066 61.1962 41.6179L59.7461 43.8051ZM63.7758 68.6595L63.4024 68.9167L62.6228 69.1468L62.0294 68.6109L61.2431 66.7754L60.5459 64.3499L61.5296 59.9829L62.7717 59.3015C62.7909 59.2902 62.7943 59.2676 62.8089 59.2541C62.8236 59.2417 62.845 59.2462 62.8575 59.2315L66.2824 55.3812L66.7517 55.2029V57.8733C66.7517 57.9071 66.7788 57.9285 66.7856 57.959C66.7957 57.9883 66.7844 58.0188 66.8014 58.0459L67.9216 59.8216C67.9295 59.8362 67.9509 59.8317 67.9588 59.843C67.9735 59.8622 67.9712 59.887 67.9916 59.9017L69.4954 61.1246V62.4456L68.9775 63.2353C68.9696 63.2466 68.9764 63.2613 68.9708 63.2714C68.9493 63.3087 68.9493 63.347 68.9459 63.3899C68.9426 63.4316 68.9381 63.4689 68.9505 63.5084C68.955 63.523 68.9459 63.5354 68.9516 63.5467L69.5755 64.9005V65.6845L68.4428 66.3186H67.4794C67.4489 66.3186 67.4309 66.3434 67.4015 66.3513C67.3745 66.358 67.3462 66.3468 67.3203 66.3614L65.9485 67.1263C65.9417 67.1297 65.9417 67.1376 65.9361 67.1421C65.9316 67.1455 65.9248 67.1421 65.9203 67.1455L63.7758 68.6595ZM66.9426 70.1667C66.9268 70.1847 66.9313 70.2084 66.9177 70.2299C66.9053 70.2513 66.8805 70.2592 66.8726 70.2818L66.6267 71.0015C66.6199 71.023 66.6335 71.0399 66.6312 71.0624C66.6267 71.085 66.6064 71.0985 66.6086 71.1222L66.638 71.6457C66.6391 71.6705 66.6605 71.6841 66.6673 71.7066C66.6718 71.7281 66.6605 71.745 66.6707 71.7653L66.7778 71.9954H66.5793L66.4338 71.8973L65.9983 70.733C65.9915 70.7172 65.9735 70.7139 65.9656 70.6992C65.9588 70.6845 65.9656 70.6687 65.9554 70.6575L65.0371 69.3849C65.027 69.3703 65.0078 69.3725 64.9988 69.3601C64.9875 69.3477 64.9886 69.3296 64.9762 69.3217L64.4956 68.9404L66.2781 67.6837L67.5675 66.965H68.5332L69.8994 67.0541C69.9062 67.0553 69.9141 67.0553 69.9209 67.0553H70.4568V67.5584C70.4568 67.5742 70.4714 67.5844 70.4748 67.599C70.4759 67.6137 70.4635 67.6261 70.468 67.6408L70.6294 68.2477C70.6339 68.2658 70.6508 68.2737 70.6564 68.2884C70.661 68.2996 70.6553 68.3132 70.661 68.3222L70.7399 68.461H69.4538C69.4392 68.461 69.429 68.4756 69.4166 68.4768C69.4042 68.4779 69.3941 68.4666 69.3805 68.47L68.8999 68.5828C68.8886 68.5862 68.8841 68.5986 68.8728 68.602C68.8616 68.6065 68.848 68.5986 68.839 68.6031L68.1192 68.9348C68.0978 68.9449 68.0933 68.9686 68.0752 68.9822C68.0572 68.9946 68.0346 68.9923 68.0188 69.0092L66.9426 70.1667ZM79.2957 82.1793L78.4947 83.4L77.054 84.7752L75.6653 85.2422L74.7436 85.355L74.536 85.2704V84.4322C74.536 84.4097 74.5168 84.3961 74.5112 84.3736C74.5033 84.3318 74.4886 84.2991 74.4638 84.2641C74.4412 84.228 74.4187 84.2043 74.3826 84.1795C74.3634 84.1671 74.3578 84.1434 74.3375 84.1344L74.0509 84.0148V83.9505L74.3273 83.8715C74.3566 83.8636 74.3657 83.8354 74.3916 83.8219C74.4277 83.7993 74.4593 83.7835 74.4852 83.7474C74.5112 83.7113 74.5191 83.6797 74.5304 83.638C74.5383 83.6109 74.5631 83.5929 74.5631 83.5624V83.0401C74.5631 83.0187 74.5439 83.0062 74.5405 82.9882C74.5371 82.9701 74.5507 82.9521 74.5439 82.9352L74.0261 81.4494C74.0182 81.4268 73.9934 81.4189 73.9843 81.4009C73.9719 81.3795 73.9764 81.3558 73.9595 81.3377L72.9408 80.2231L72.3767 78.8908V77.9104C72.3767 77.8698 72.3463 77.8427 72.335 77.8066C72.3226 77.7728 72.3249 77.731 72.3012 77.7017L67.5595 72.1479L67.2831 71.5613L67.2606 71.1586L67.4648 70.5629L68.4429 69.5081L69.0803 69.2137L69.4864 69.1167H70.7702L74.0046 74.4292C74.0057 74.4326 74.0113 74.4304 74.0125 74.4338C74.0136 74.4349 74.0125 74.4383 74.0136 74.4417L75.4858 76.6122C75.4971 76.628 75.5186 76.6235 75.5298 76.637C75.5479 76.6562 75.5513 76.6844 75.5716 76.7002L78.5229 78.6688L79.3927 81.496L79.2957 82.1793Z" fill="#2C2E32"/>
<path d="M77.2704 79.9434L76.923 78.9484C76.9162 78.9304 76.897 78.9236 76.8891 78.91C76.8812 78.8942 76.888 78.8762 76.8767 78.8615L75.9359 77.6194C75.8287 77.4773 75.6256 77.448 75.4835 77.5585C75.3413 77.6657 75.3131 77.8687 75.4225 78.0109L76.3329 79.2112L76.6432 80.1059V81.4755L76.4638 81.6627H76.2055L76.0193 81.4845V80.0517C76.0193 79.8735 75.8738 79.728 75.6955 79.728H75.2488L73.9853 79.0984L73.4257 78.3087C73.3242 78.1621 73.1211 78.1294 72.9756 78.2309C72.83 78.3324 72.7962 78.5355 72.8977 78.681L73.5047 79.5361C73.5171 79.5553 73.543 79.5508 73.56 79.5655C73.5848 79.5903 73.5938 79.6241 73.6243 79.6399L75.0299 80.3405C75.0751 80.3653 75.1258 80.3744 75.1743 80.3744H75.3718V81.621C75.3718 81.6221 75.3729 81.6221 75.3729 81.6244C75.3729 81.6661 75.4056 81.6999 75.4203 81.7394C75.4383 81.7767 75.4395 81.824 75.4688 81.8511C75.4699 81.8511 75.4688 81.8522 75.4699 81.8545L75.8478 82.22C75.911 82.2798 75.9923 82.3103 76.0724 82.3103H76.5992C76.6894 82.3103 76.7695 82.273 76.8305 82.2121C76.8305 82.211 76.8316 82.2121 76.8338 82.211L77.2005 81.8308C77.2343 81.797 77.2343 81.7462 77.2501 81.7033C77.2614 81.6695 77.2885 81.6447 77.2885 81.6063V80.0517C77.2885 80.0303 77.2693 80.0179 77.2659 79.9998C77.2648 79.9829 77.2772 79.9637 77.2704 79.9434L77.2704 79.9434Z" fill="#2C2E32"/>
</svg>
